<svg width="20" height="20" viewBox="0 0 20 20" fill="none" xmlns="http://www.w3.org/2000/svg">
<path d="M18.6497 15.5082H1.35024C0.604531 15.5082 0 14.9037 0 14.158V13.8921C0 13.1464 0.604531 12.5419 1.35024 12.5419H18.6498C19.3955 12.5419 20 13.1464 20 13.8921V14.158C20 14.9037 19.3955 15.5082 18.6497 15.5082Z" fill="#E94444"/>
<path d="M20 13.892V14.1579C20 14.9038 19.3957 15.5084 18.6498 15.5084H17.8597C18.6056 15.5084 19.2099 14.9038 19.2099 14.1579V13.892C19.2099 13.1465 18.6056 12.5419 17.8597 12.5419H18.6498C19.3957 12.5419 20 13.1466 20 13.892Z" fill="#D83131"/>
<path d="M18.6498 15.5082H10H1.35028C1.35028 15.5082 0.753697 18.389 4.14862 19.5222C4.73018 19.7164 5.33732 19.8068 5.94617 19.8068H10.0001H14.054C14.6628 19.8068 15.27 19.7164 15.8515 19.5222C19.2464 18.389 18.6498 15.5082 18.6498 15.5082Z" fill="#FE9738"/>
<path d="M15.8514 19.5221C15.2697 19.7165 14.6626 19.807 14.0539 19.807H13.1375C13.7465 19.807 14.3536 19.7165 14.9353 19.5221C18.3299 18.3889 17.7333 15.5084 17.7333 15.5084H18.6497C18.6497 15.5084 19.2464 18.3889 15.8514 19.5221Z" fill="#FE860A"/>
<path d="M18.6814 13.0797C18.6814 13.7539 17.8981 14.1193 17.3773 13.6913C17.1632 13.5153 16.9104 13.3759 16.5097 13.3759C15.424 13.3759 15.424 14.2359 14.3383 14.2359C13.2525 14.2359 13.2525 13.3759 12.1668 13.3759C11.0811 13.3759 11.0811 14.2359 9.99543 14.2359C8.90978 14.2359 8.90978 13.3759 7.82409 13.3759C6.73837 13.3759 6.73837 14.2359 5.65264 14.2359C4.56695 14.2359 4.56695 13.3759 3.48127 13.3759C3.08076 13.3759 2.82802 13.5153 2.61398 13.6911C2.09314 14.1192 1.30981 13.7538 1.30981 13.0796V11.4842H18.6813V13.0797H18.6814Z" fill="#BBEC6C"/>
<path d="M18.6816 11.4843V13.0798C18.6816 13.7106 17.9957 14.071 17.4812 13.764C17.7085 13.6313 17.8718 13.3879 17.8718 13.0798V11.4843H18.6816Z" fill="#A2E62E"/>
<path d="M1.31848 10.2059V11.4961H3.18079C3.56821 11.4961 3.8823 11.8102 3.8823 12.1976V15.9135C3.8823 16.4088 4.28385 16.8104 4.77918 16.8104C5.27451 16.8104 5.67603 16.4088 5.67603 15.9135V12.1976C5.67603 11.8102 5.99011 11.4961 6.37753 11.4961H18.6813V10.2059H1.31848Z" fill="#FEE45A"/>
<path d="M17.8717 10.2058H18.6815V11.496H17.8717V10.2058Z" fill="#FEDF30"/>
<path d="M18.6497 10.2942H1.35024C0.604531 10.2942 0 9.68969 0 8.94395V8.67812C0 7.93241 0.604531 7.32788 1.35024 7.32788H18.6498C19.3955 7.32788 20 7.93241 20 8.67812V8.94395C20 9.68969 19.3955 10.2942 18.6497 10.2942Z" fill="#9E5528"/>
<path d="M20 8.678V8.94391C20 9.68977 19.3957 10.294 18.6498 10.294H17.8597C18.6056 10.294 19.2099 9.68977 19.2099 8.94391V8.678C19.2099 7.93253 18.6056 7.32788 17.8597 7.32788H18.6498C19.3957 7.32792 20 7.93257 20 8.678Z" fill="#904D24"/>
<path d="M9.9999 0.000183105C3.25612 0.0977773 0.990305 3.75593 0.242304 5.88146C-0.0140273 6.6098 0.532477 7.37201 1.30459 7.37201H9.9999H18.6951C19.473 7.37201 20.0124 6.60212 19.753 5.8688C19.0005 3.74144 16.7303 0.0975826 9.9999 0.000183105Z" fill="#FE9738"/>
<path d="M18.6952 7.3721H18.599C18.8609 7.08002 18.9687 6.65479 18.8227 6.24124C18.07 4.11348 15.7999 0.469901 9.06944 0.372541C7.32828 0.397465 5.88524 0.660183 4.69043 1.07252C6.04538 0.450156 7.78007 0.0321679 9.99993 0C16.7303 0.09775 19.0005 3.74137 19.7532 5.8687C20.0123 6.6021 19.4728 7.3721 18.6952 7.3721Z" fill="#FE860A"/>
<path d="M7.21642 3.09264C7.16953 3.09264 7.12198 3.0813 7.07782 3.05747C6.9359 2.98079 6.88306 2.80356 6.95974 2.66164L7.22148 2.17733C7.29816 2.03542 7.4754 1.98257 7.61731 2.05925C7.75923 2.13594 7.81207 2.31317 7.73539 2.45508L7.47365 2.93939C7.42084 3.03714 7.32028 3.09264 7.21642 3.09264Z" fill="#E57917"/>
<path d="M9.99643 3.12571C9.83512 3.12571 9.70435 2.99493 9.70435 2.83362V2.28311C9.70435 2.1218 9.83512 1.99103 9.99643 1.99103C10.1577 1.99103 10.2885 2.1218 10.2885 2.28311V2.83362C10.2885 2.99493 10.1577 3.12571 9.99643 3.12571Z" fill="#E57917"/>
<path d="M12.7838 3.08861C12.6831 3.08861 12.585 3.03642 12.5309 2.943L12.2547 2.46675C12.1737 2.32721 12.2213 2.1485 12.3608 2.06757C12.5003 1.98665 12.6791 2.03416 12.76 2.17369L13.0362 2.64994C13.1171 2.78948 13.0696 2.96819 12.9301 3.04912C12.8839 3.07591 12.8336 3.08861 12.7838 3.08861Z" fill="#E57917"/>
</svg>
