<svg width="20" height="21" viewBox="0 0 20 21" fill="none" xmlns="http://www.w3.org/2000/svg">
<path d="M15.5078 7.94348L16.2891 20.6451C16.3591 20.6451 16.4288 20.6321 16.4948 20.6066C16.5107 20.6026 16.5305 20.598 16.5539 20.5924C16.8779 20.5151 17.7382 20.3097 18.5169 19.649C19.501 18.814 20 17.5889 20 16.008V7.94348H15.5078Z" fill="#FF7038"/>
<path d="M0 7.94348V14.3951C0 14.6525 0.157773 14.8816 0.393203 14.9663L16.0963 20.6114C16.159 20.634 16.2241 20.6451 16.289 20.6451H16.2891V7.94348H0Z" fill="#FFDE46"/>
<path d="M9.25781 18.153L16.0963 20.6114C16.159 20.634 16.2241 20.6451 16.289 20.6451H16.2891V7.94348H9.25781V18.153Z" fill="#FF9D21"/>
<path d="M0 11.5992L16.2891 17.455V16.174L0 10.3182V11.5992Z" fill="#F5F0EB"/>
<path d="M9.25781 14.9273L16.2891 17.455V16.174L9.25781 13.6463V14.9273Z" fill="#EBE1DC"/>
<path d="M16.5865 1.77726C16.4379 1.68685 16.2583 1.66867 16.0955 1.72746C15.3036 2.01359 12.2438 3.11274 9.00453 4.27649C5.31793 5.60088 1.50578 6.9704 0.392383 7.37262C0.15711 7.45762 -0.000312036 7.68697 4.64416e-07 7.94427C0.000312964 8.20157 0.158282 8.43052 0.39375 8.51488L10.625 12.1929V15.2016C10.625 15.981 11.2371 16.6129 11.9922 16.6129C12.7473 16.6129 13.3594 15.981 13.3594 15.2016V13.1759L16.0955 14.1596C16.2582 14.2184 16.4379 14.2002 16.5865 14.1098C16.7259 14.025 20 11.9868 20 7.94351C20 7.77649 19.9612 3.83004 16.5865 1.77726Z" fill="#FFEF7B"/>
<path d="M16.5865 1.77726C16.4379 1.68685 16.2583 1.66867 16.0955 1.72746C15.3242 2.00609 12.402 3.05593 9.25781 4.18548V11.7014L10.625 12.1929V15.2016C10.625 15.981 11.2371 16.6129 11.9922 16.6129C12.7473 16.6129 13.3594 15.981 13.3594 15.2016V13.1759L16.0955 14.1596C16.2582 14.2184 16.4379 14.2002 16.5865 14.1098C16.7259 14.025 20 11.9868 20 7.94351C20 7.77649 19.9612 3.83004 16.5865 1.77726Z" fill="#FFDE46"/>
<path d="M16.0938 5.92733C16.4174 5.92733 16.6797 5.65653 16.6797 5.32249C16.6797 4.98845 16.4174 4.71765 16.0938 4.71765C15.7701 4.71765 15.5078 4.98845 15.5078 5.32249C15.5078 5.65653 15.7701 5.92733 16.0938 5.92733Z" fill="#FF9D21"/>
<path d="M16.875 8.74993C17.1986 8.74993 17.4609 8.47913 17.4609 8.14509C17.4609 7.81105 17.1986 7.54025 16.875 7.54025C16.5514 7.54025 16.2891 7.81105 16.2891 8.14509C16.2891 8.47913 16.5514 8.74993 16.875 8.74993Z" fill="#FF9D21"/>
<path d="M14.9219 11.1693C15.2455 11.1693 15.5078 10.8985 15.5078 10.5644C15.5078 10.2304 15.2455 9.95959 14.9219 9.95959C14.5983 9.95959 14.3359 10.2304 14.3359 10.5644C14.3359 10.8985 14.5983 11.1693 14.9219 11.1693Z" fill="#FF9D21"/>
<path d="M13.75 8.3467C14.0736 8.3467 14.3359 8.07591 14.3359 7.74186C14.3359 7.40782 14.0736 7.13702 13.75 7.13702C13.4264 7.13702 13.1641 7.40782 13.1641 7.74186C13.1641 8.07591 13.4264 8.3467 13.75 8.3467Z" fill="#FF9D21"/>
<path d="M9.25768 3.6291C8.93409 3.6291 8.67175 3.35829 8.67175 3.02426C8.67175 2.25999 8.26034 1.57285 7.59812 1.23099L7.43316 1.14587C7.1437 0.996519 7.0264 0.633172 7.17112 0.334422C7.31589 0.0356723 7.66792 -0.0854164 7.95722 0.0639384L8.12218 0.149059C9.18401 0.697124 9.84362 1.79882 9.84362 3.02426C9.84362 3.35829 9.58128 3.6291 9.25768 3.6291Z" fill="#BEDA4B"/>
<path d="M9.25781 3.62904C9.58141 3.62904 9.84375 3.35823 9.84375 3.0242C9.84375 2.3315 9.63285 1.67843 9.25781 1.14243V3.62904Z" fill="#14CD6E"/>
<path d="M9.25781 7.66122C7.85777 7.66122 6.71875 6.48545 6.71875 5.04025C6.71875 3.59505 7.85777 2.41928 9.25781 2.41928C10.6579 2.41928 11.7969 3.59505 11.7969 5.04025C11.7969 6.48545 10.6579 7.66122 9.25781 7.66122Z" fill="#FF4169"/>
<path d="M11.7969 5.04025C11.7969 3.59505 10.6579 2.41928 9.25781 2.41928V7.66122C10.6579 7.66122 11.7969 6.48545 11.7969 5.04025Z" fill="#CF3160"/>
</svg>
