<svg width="23" height="22" viewBox="0 0 23 22" fill="none" xmlns="http://www.w3.org/2000/svg">
<path d="M7.33045 17.0682C6.06196 17.0682 5.03369 18.0965 5.03369 19.365C5.03369 20.6335 6.062 21.6617 7.33045 21.6617C8.59894 21.6617 9.6272 20.6334 9.6272 19.365C9.62725 18.0965 8.59894 17.0682 7.33045 17.0682ZM7.33045 20.641C6.62574 20.641 6.05448 20.0697 6.05448 19.365C6.05448 18.6603 6.62574 18.089 7.33045 18.089C8.03515 18.089 8.60641 18.6603 8.60641 19.365C8.60646 20.0697 8.03515 20.641 7.33045 20.641Z" fill="white"/>
<path d="M17.028 17.0682C15.7595 17.0682 14.7312 18.0965 14.7312 19.365C14.7312 20.6335 15.7595 21.6617 17.028 21.6617C18.2964 21.6617 19.3247 20.6334 19.3247 19.365C19.3247 18.0965 18.2964 17.0682 17.028 17.0682ZM17.028 20.641C16.3233 20.641 15.752 20.0697 15.752 19.365C15.752 18.6603 16.3233 18.089 17.028 18.089C17.7327 18.089 18.3039 18.6603 18.3039 19.365C18.304 20.0697 17.7327 20.641 17.028 20.641Z" fill="white"/>
<path d="M22.2084 3.67042C22.1021 3.55431 21.9567 3.48162 21.8001 3.46624L5.18678 3.23656L4.72743 1.83296C4.40382 0.894674 3.52517 0.261234 2.53271 0.250732H0.822896C0.541003 0.250732 0.3125 0.479236 0.3125 0.761128C0.3125 1.04302 0.541003 1.27152 0.822896 1.27152H2.53271C3.08766 1.28378 3.57632 1.64012 3.75768 2.16473L6.99869 11.9388L6.74351 12.5257C6.45889 13.2597 6.54437 14.0858 6.97319 14.7459C7.39791 15.3943 8.11243 15.7945 8.88718 15.8178H18.8144C19.0963 15.8178 19.3248 15.5893 19.3248 15.3074C19.3248 15.0255 19.0963 14.797 18.8144 14.797H8.88714C8.44962 14.786 8.04688 14.5559 7.8153 14.1845C7.58631 13.8177 7.53927 13.3657 7.68771 12.9595L7.89189 12.5002L18.6357 11.3773C19.8158 11.2473 20.7866 10.389 21.0601 9.23362L22.2851 4.10417C22.3403 3.95646 22.3109 3.79033 22.2084 3.67042ZM20.0648 9.004C19.8991 9.74773 19.2677 10.2963 18.5081 10.3566L7.89189 11.4539L5.51854 4.25735L21.1621 4.48703L20.0648 9.004Z" fill="white"/>
</svg>
