<svg width="23" height="22" viewBox="0 0 23 22" fill="none" xmlns="http://www.w3.org/2000/svg">
<path d="M7.33054 17.0682C6.06205 17.0682 5.03378 18.0965 5.03378 19.365C5.03378 20.6335 6.0621 21.6617 7.33054 21.6617C8.59903 21.6617 9.62729 20.6334 9.62729 19.365C9.62734 18.0965 8.59903 17.0682 7.33054 17.0682ZM7.33054 20.641C6.62583 20.641 6.05457 20.0697 6.05457 19.365C6.05457 18.6603 6.62583 18.089 7.33054 18.089C8.03524 18.089 8.6065 18.6603 8.6065 19.365C8.60655 20.0697 8.03524 20.641 7.33054 20.641Z" fill="white"/>
<path d="M17.028 17.0682C15.7595 17.0682 14.7313 18.0965 14.7313 19.365C14.7313 20.6335 15.7596 21.6617 17.028 21.6617C18.2965 21.6617 19.3248 20.6334 19.3248 19.365C19.3248 18.0965 18.2965 17.0682 17.028 17.0682ZM17.028 20.641C16.3233 20.641 15.7521 20.0697 15.7521 19.365C15.7521 18.6603 16.3233 18.089 17.028 18.089C17.7327 18.089 18.304 18.6603 18.304 19.365C18.304 20.0697 17.7327 20.641 17.028 20.641Z" fill="white"/>
<path d="M22.2085 3.67042C22.1022 3.55431 21.9568 3.48162 21.8002 3.46624L5.1869 3.23656L4.72755 1.83296C4.40394 0.894674 3.5253 0.261234 2.53284 0.250732H0.823018C0.541125 0.250732 0.312622 0.479236 0.312622 0.761128C0.312622 1.04302 0.541125 1.27152 0.823018 1.27152H2.53284C3.08778 1.28378 3.57644 1.64012 3.7578 2.16473L6.99881 11.9388L6.74364 12.5257C6.45901 13.2597 6.54449 14.0858 6.97331 14.7459C7.39803 15.3943 8.11255 15.7945 8.88731 15.8178H18.8145C19.0964 15.8178 19.3249 15.5893 19.3249 15.3074C19.3249 15.0255 19.0964 14.797 18.8145 14.797H8.88726C8.44974 14.786 8.047 14.5559 7.81542 14.1845C7.58643 13.8177 7.53939 13.3657 7.68784 12.9595L7.89201 12.5002L18.6358 11.3773C19.8159 11.2473 20.7867 10.389 21.0602 9.23362L22.2852 4.10417C22.3404 3.95646 22.3111 3.79033 22.2085 3.67042ZM20.0649 9.004C19.8992 9.74773 19.2678 10.2963 18.5082 10.3566L7.89201 11.4539L5.51867 4.25735L21.1622 4.48703L20.0649 9.004Z" fill="white"/>
</svg>
