<svg width="46" height="46" viewBox="0 0 46 46" fill="none" xmlns="http://www.w3.org/2000/svg">
<circle cx="23" cy="23" r="23" fill="#FF820D"/>
<g clip-path="url(#clip0_4019_4)">
<path d="M28.2492 34C27.4745 34 26.7063 33.863 25.9552 33.5901C22.646 32.388 19.5744 30.4301 17.0724 27.9281C14.5703 25.4261 12.6124 22.3544 11.4103 19.0453C11.024 17.9818 10.91 16.8841 11.0716 15.7824C11.223 14.7504 11.6227 13.7486 12.2277 12.8852C12.8353 12.018 13.6453 11.2967 14.5702 10.7993C15.5565 10.269 16.6331 10 17.77 10C18.1236 10 18.4292 10.2471 18.5033 10.5928L19.6805 16.0863C19.7338 16.335 19.6574 16.5939 19.4775 16.7738L17.466 18.7852C19.3636 22.5578 22.4426 25.6368 26.2152 27.5343L28.2266 25.5229C28.4065 25.343 28.6654 25.2667 28.9141 25.3199L34.4076 26.497C34.7534 26.5711 35.0004 26.8767 35.0004 27.2304C35.0004 28.3673 34.7314 29.4439 34.201 30.4302C33.7036 31.3551 32.9824 32.1652 32.1152 32.7728C31.2518 33.3777 30.25 33.7774 29.218 33.9288C28.8946 33.9763 28.5713 34 28.2492 34ZM17.1708 11.5327C15.6711 11.6983 14.34 12.4844 13.4561 13.746C12.4621 15.1646 12.2303 16.9094 12.8201 18.5332C15.1312 24.8951 20.1054 29.8693 26.4673 32.1803C28.091 32.7702 29.8359 32.5385 31.2545 31.5444C32.5161 30.6605 33.3022 29.3294 33.4677 27.8297L28.9988 26.8721L26.8981 28.9727C26.6746 29.1963 26.335 29.2556 26.0489 29.1212C21.5871 27.0251 17.9754 23.4134 15.8793 18.9515C15.7449 18.6655 15.8042 18.3258 16.0277 18.1023L18.1284 16.0017L17.1708 11.5327Z" fill="white"/>
</g>
<defs>
<clipPath id="clip0_4019_4">
<rect width="24" height="24" fill="white" transform="translate(11 10)"/>
</clipPath>
</defs>
</svg>
