<svg width="46" height="46" viewBox="0 0 46 46" fill="none" xmlns="http://www.w3.org/2000/svg">
<circle cx="23" cy="23" r="23" fill="#FF820D"/>
<g clip-path="url(#clip0_4019_3)">
<path d="M23.0548 11C23.0483 11.0064 23.0355 11.0064 23.0162 11.0064C16.5087 11.0064 11.2166 16.2986 11.2166 22.806C11.2166 25.4618 12.1232 28.0403 13.7822 30.1173L12.0654 34.1041C11.9239 34.432 12.0782 34.8114 12.3997 34.9465C12.5155 34.9979 12.6441 35.0108 12.7663 34.9915L19.0615 33.8855C20.3219 34.342 21.6465 34.5735 22.984 34.5671C29.4915 34.5671 34.7837 29.2749 34.7837 22.7675C34.7965 16.2793 29.543 11.0064 23.0548 11ZM22.9905 33.2874C21.7494 33.2874 20.5212 33.0624 19.3573 32.6251C19.248 32.5801 19.1323 32.5737 19.0165 32.593L13.7179 33.5189L15.1198 30.2588C15.2162 30.0337 15.1776 29.7701 15.0169 29.5836C14.2581 28.7026 13.6536 27.6995 13.2292 26.6128C12.7534 25.3975 12.509 24.105 12.509 22.7996C12.509 16.9995 17.2289 12.2861 23.0226 12.2861C28.8035 12.2732 33.4976 16.948 33.504 22.7289C33.504 22.7417 33.504 22.7546 33.504 22.7675C33.504 28.574 28.7842 33.2874 22.9905 33.2874Z" fill="white"/>
<path d="M22.4887 20.4331H19.0163C18.6627 20.4331 18.3733 20.7225 18.3733 21.0761C18.3733 21.4298 18.6627 21.7192 19.0163 21.7192H22.4887C22.8424 21.7192 23.1318 21.4298 23.1318 21.0761C23.1318 20.7225 22.8424 20.4331 22.4887 20.4331Z" fill="white"/>
<path d="M26.9899 23.6487H19.0163C18.6627 23.6487 18.3733 23.938 18.3733 24.2917C18.3733 24.6454 18.6627 24.9347 19.0163 24.9347H26.9899C27.3436 24.9347 27.633 24.6454 27.633 24.2917C27.633 23.938 27.3436 23.6487 26.9899 23.6487Z" fill="white"/>
</g>
<defs>
<clipPath id="clip0_4019_3">
<rect width="24" height="24" fill="white" transform="translate(11 11)"/>
</clipPath>
</defs>
</svg>
