<svg width="16" height="16" viewBox="0 0 16 16" fill="none" xmlns="http://www.w3.org/2000/svg">
<g clip-path="url(#clip0_1_850)">
<path d="M2.40289 4.50349L2.40282 4.50341L2.39878 4.50729C2.28139 4.62006 2.22653 4.78289 2.25149 4.9435L3.31774 14.2323L3.31787 14.2334C3.45218 15.3333 4.39 16.1577 5.49804 16.1498H10.6655C11.8045 16.1654 12.7637 15.3018 12.8672 14.1674C12.8672 14.1674 12.8672 14.1673 12.8672 14.1673L13.7491 4.89634L13.7492 4.89635L13.7496 4.89035C13.7574 4.74816 13.704 4.60935 13.6029 4.50899L13.603 4.50884L13.5971 4.50351C13.4839 4.40262 13.3348 4.35194 13.1837 4.36292H2.81625C2.6652 4.35194 2.51606 4.40263 2.40289 4.50349ZM4.43625 14.1158L3.43016 5.48341H12.5733L11.7481 14.0972C11.7481 14.0974 11.7481 14.0976 11.7481 14.0978C11.6914 14.6434 11.2207 15.0512 10.6726 15.0294L10.6726 15.0293H10.6666H5.4975V15.0291L5.49142 15.0294C4.95429 15.0512 4.4926 14.6521 4.43644 14.1175L4.43625 14.1158Z" fill="#FF820D" stroke="#FF820D" stroke-width="0.3"/>
<path d="M9.36009 -0.149153L9.3601 -0.149153C10.076 -0.123441 10.6356 0.476959 10.6114 1.19253V1.69633H14.687C14.9963 1.69633 15.2472 1.94709 15.2472 2.25654C15.2472 2.56596 14.9964 2.81678 14.687 2.81678H1.31296C1.00353 2.81678 0.75271 2.56596 0.75271 2.25654C0.75271 1.94711 1.00353 1.69629 1.31296 1.69629H5.38851V1.19252L9.36009 -0.149153ZM9.36009 -0.149153C9.33712 -0.149977 9.31402 -0.150209 9.29088 -0.149799H6.70903C5.99254 -0.162288 5.40128 0.40798 5.38798 1.12461M9.36009 -0.149153L6.70768 0.000200718C6.07337 -0.0115386 5.5497 0.493132 5.53796 1.12745M5.38798 1.12461C5.38798 1.12463 5.38798 1.12465 5.38798 1.12467L5.53796 1.12745M5.38798 1.12461L5.53851 1.18991C5.53776 1.1691 5.53756 1.14825 5.53796 1.12745M5.38798 1.12461L5.53796 1.12745M9.49217 1.17067L9.49093 1.18025V1.18991V1.69629H6.50896V1.18991V1.1803L6.50773 1.17077C6.49518 1.07318 6.56413 0.983872 6.66176 0.971313L6.66186 0.9713C6.67334 0.969816 6.68514 0.969477 6.69707 0.97032L6.69704 0.970693H6.70764H9.29221V0.971069L9.3028 0.970319C9.40099 0.963368 9.4862 1.0373 9.49315 1.13548L9.49317 1.13574C9.49401 1.14731 9.49368 1.15902 9.49217 1.17067Z" fill="#FF820D" stroke="#FF820D" stroke-width="0.3"/>
</g>
<defs>
<clipPath id="clip0_1_850">
<rect width="16" height="16" fill="white"/>
</clipPath>
</defs>
</svg>
