<svg width="17" height="17" viewBox="0 0 17 17" fill="none" xmlns="http://www.w3.org/2000/svg">
<g clip-path="url(#clip0_1_3552)">
<path d="M1.60834 13.6001H1.70024L6.13401 12.6352C6.22037 12.6209 6.30039 12.5808 6.36371 12.5204L13.8758 5.00827C14.4245 4.46069 14.7307 3.7159 14.7258 2.94073C14.7268 2.15954 14.4216 1.40908 13.8758 0.8502C13.3283 0.301437 12.5835 -0.00473589 11.8083 0.000232879C11.0281 -0.00667063 10.2798 0.309264 9.74072 0.873197L2.25155 8.38527C2.18551 8.43843 2.13736 8.51059 2.1137 8.59202L1.14888 13.0258C1.12254 13.185 1.17372 13.3471 1.28673 13.4623C1.37155 13.5488 1.48715 13.5984 1.60834 13.6001ZM11.8083 0.919147C12.9121 0.919059 13.8069 1.81383 13.807 2.91765C13.807 2.92534 13.807 2.93304 13.8069 2.94073C13.8144 3.46659 13.6069 3.97274 13.2326 4.34206L10.4069 1.49341C10.7792 1.12348 11.2834 0.916817 11.8083 0.919147ZM9.76367 2.15967L12.5893 4.98531L6.04206 11.5096L3.21642 8.70688L9.76367 2.15967ZM2.84886 9.62584L5.12315 11.9001L2.2056 12.5434L2.84886 9.62584Z" fill="white"/>
<path d="M16.196 16.0813H0.804184C0.550425 16.0813 0.344727 16.287 0.344727 16.5408C0.344727 16.7945 0.550425 17.0002 0.804184 17.0002H16.196C16.4497 17.0002 16.6554 16.7945 16.6554 16.5408C16.6554 16.287 16.4497 16.0813 16.196 16.0813Z" fill="white"/>
</g>
<defs>
<clipPath id="clip0_1_3552">
<rect width="17" height="17" fill="white"/>
</clipPath>
</defs>
</svg>
