<svg width="17" height="17" viewBox="0 0 17 17" fill="none" xmlns="http://www.w3.org/2000/svg">
<g clip-path="url(#clip0_1_4056)">
<path d="M1.60834 13.6H1.70024L6.13401 12.6351C6.22037 12.6207 6.30039 12.5807 6.36371 12.5203L13.8758 5.00815C14.4245 4.46057 14.7307 3.71578 14.7258 2.94061C14.7268 2.15941 14.4216 1.40895 13.8758 0.850078C13.3283 0.301315 12.5835 -0.00485796 11.8083 0.000110809C11.0281 -0.0067927 10.2798 0.309142 9.74072 0.873075L2.25155 8.38515C2.18551 8.43831 2.13736 8.51047 2.1137 8.5919L1.14888 13.0257C1.12254 13.1848 1.17372 13.347 1.28673 13.4622C1.37155 13.5487 1.48715 13.5983 1.60834 13.6ZM11.8083 0.919025C12.9121 0.918937 13.8069 1.81371 13.807 2.91753C13.807 2.92522 13.807 2.93291 13.8069 2.94061C13.8144 3.46646 13.6069 3.97262 13.2326 4.34193L10.4069 1.49329C10.7792 1.12336 11.2834 0.916695 11.8083 0.919025ZM9.76367 2.15955L12.5893 4.98519L6.04206 11.5094L3.21642 8.70676L9.76367 2.15955ZM2.84886 9.62571L5.12315 11.9L2.2056 12.5433L2.84886 9.62571Z" fill="#FF820D"/>
<path d="M16.196 16.0811H0.804184C0.550425 16.0811 0.344727 16.2867 0.344727 16.5405C0.344727 16.7943 0.550425 17 0.804184 17H16.196C16.4497 17 16.6554 16.7943 16.6554 16.5405C16.6554 16.2867 16.4497 16.0811 16.196 16.0811Z" fill="#FF820D"/>
</g>
<defs>
<clipPath id="clip0_1_4056">
<rect width="17" height="17" fill="white"/>
</clipPath>
</defs>
</svg>
