<svg width="16" height="16" viewBox="0 0 16 16" fill="none" xmlns="http://www.w3.org/2000/svg">
<g clip-path="url(#clip0_1_212)">
<path d="M8.0001 2.66666C7.26475 2.66666 6.66675 3.26462 6.66675 4C6.66675 4.73537 7.26472 5.33334 8.0001 5.33334C8.73548 5.33334 9.33345 4.73537 9.33345 4C9.33345 3.26462 8.73544 2.66666 8.0001 2.66666ZM8.0001 4.66665C7.6326 4.66665 7.33344 4.3675 7.33344 4C7.33344 3.6325 7.6326 3.33334 8.0001 3.33334C8.3676 3.33334 8.66676 3.6325 8.66676 4C8.66676 4.3675 8.3676 4.66665 8.0001 4.66665Z" fill="#FF820D"/>
<path d="M9 6H6.33334C6.14909 6 6 6.14909 6 6.33334V7.66669C6 7.85094 6.14909 8.00003 6.33334 8.00003H6.66669V13C6.66669 13.1843 6.81578 13.3334 7.00003 13.3334H9.00003C9.18428 13.3334 9.33337 13.1843 9.33337 13V6.33334C9.33334 6.14909 9.18425 6 9 6ZM8.66666 12.6667H7.33331V7.66666C7.33331 7.48241 7.18422 7.33331 6.99997 7.33331H6.66663V6.66666H8.66663V12.6667H8.66666Z" fill="#FF820D"/>
<path d="M8 0C3.58887 0 0 3.58887 0 8C0 12.4111 3.58887 16 8 16C12.4111 16 16 12.4111 16 8C16 3.58887 12.4111 0 8 0ZM8 15.3333C3.95638 15.3333 0.666656 12.0436 0.666656 8C0.666656 3.95638 3.95638 0.666656 8 0.666656C12.0436 0.666656 15.3333 3.95638 15.3333 8C15.3333 12.0436 12.0436 15.3333 8 15.3333Z" fill="#FF820D"/>
</g>
<defs>
<clipPath id="clip0_1_212">
<rect width="16" height="16" fill="white"/>
</clipPath>
</defs>
</svg>
