<svg width="16" height="16" viewBox="0 0 16 16" fill="none" xmlns="http://www.w3.org/2000/svg">
<g clip-path="url(#clip0_1_219)">
<path d="M8 0C3.58171 0 0 3.58171 0 8C0 12.4183 3.58171 16 8 16C12.4183 16 16 12.4183 16 8C15.9952 3.58374 12.4163 0.00483871 8 0ZM8 15.4839C3.86677 15.4839 0.516129 12.1332 0.516129 8C0.516129 3.86677 3.86677 0.516129 8 0.516129C12.1332 0.516129 15.4839 3.86677 15.4839 8C15.479 12.1312 12.1312 15.479 8 15.4839Z" fill="#FF820D"/>
<path d="M11.7621 4.11849C11.6911 4.08404 11.6081 4.08404 11.537 4.11849V4.11823L6.62296 6.50327C6.61548 6.50688 6.61109 6.51462 6.60412 6.51901C6.57041 6.54133 6.54154 6.5702 6.51922 6.60391C6.51483 6.61088 6.50709 6.61527 6.50348 6.62275L4.11818 11.5371C4.05602 11.6653 4.1096 11.8197 4.23786 11.8819C4.30892 11.9163 4.39186 11.9163 4.46296 11.8819L9.37703 9.49682C9.38451 9.49321 9.3889 9.48546 9.39587 9.48108C9.42958 9.45875 9.45845 9.42988 9.48077 9.39617C9.48516 9.3892 9.4929 9.38482 9.49652 9.37733L11.8818 4.46326C11.944 4.33501 11.8904 4.18065 11.7621 4.11849ZM4.90786 11.0922L6.80954 7.17424L8.8258 9.1905L4.90786 11.0922ZM9.19174 8.82559L7.17419 6.80959L11.0919 4.90791L9.19174 8.82559Z" fill="#FF820D"/>
</g>
<defs>
<clipPath id="clip0_1_219">
<rect width="16" height="16" fill="white"/>
</clipPath>
</defs>
</svg>
