<svg width="60" height="16" viewBox="0 0 60 16" fill="none" xmlns="http://www.w3.org/2000/svg">
<path d="M0 8C0 3.58172 3.58172 0 8 0H60V16H8C3.58172 16 0 12.4183 0 8Z" fill="#FF820D"/>
<g clip-path="url(#clip0_1_231)">
<path d="M52.4285 9.14285C52.2707 9.14285 52.1428 9.27077 52.1428 9.42857V11.1429C52.1428 11.3007 52.0149 11.4286 51.8571 11.4286H46.1428C45.985 11.4286 45.8571 11.3007 45.8571 11.1429V9.42857C45.8571 9.27077 45.7292 9.14285 45.5714 9.14285C45.4136 9.14285 45.2856 9.27077 45.2856 9.42857V11.1429C45.2856 11.6162 45.6694 12 46.1428 12H51.8571C52.3305 12 52.7142 11.6162 52.7142 11.1429V9.42857C52.7142 9.27077 52.5863 9.14285 52.4285 9.14285Z" fill="white"/>
<path d="M50.6242 8.94086C50.5135 8.83393 50.338 8.83393 50.2272 8.94086L49.2858 9.8817V4.28572C49.2858 4.12792 49.1579 4 49.0001 4C48.8423 4 48.7144 4.12792 48.7144 4.28572V9.88172L47.7735 8.94086C47.66 8.83124 47.4791 8.83438 47.3695 8.94787C47.2626 9.0586 47.2626 9.23413 47.3695 9.34485L48.7981 10.7734C48.9095 10.8851 49.0904 10.8854 49.2021 10.7739C49.2023 10.7738 49.2025 10.7736 49.2027 10.7734L50.6312 9.34485C50.7409 9.23135 50.7377 9.05048 50.6242 8.94086Z" fill="white"/>
</g>
<path d="M11.784 11C11.7467 11 11.7173 10.9893 11.696 10.968C11.6747 10.9467 11.664 10.9173 11.664 10.88V5.52C11.664 5.48267 11.6747 5.45333 11.696 5.432C11.7173 5.41067 11.7467 5.4 11.784 5.4H12.32C12.384 5.4 12.432 5.42667 12.464 5.48L13.808 7.624C13.824 7.656 13.84 7.656 13.856 7.624L15.208 5.48C15.24 5.42667 15.288 5.4 15.352 5.4H15.888C15.9253 5.4 15.9547 5.41067 15.976 5.432C15.9973 5.45333 16.008 5.48267 16.008 5.52V10.88C16.008 10.9173 15.9973 10.9467 15.976 10.968C15.9547 10.9893 15.9253 11 15.888 11H15.36C15.3227 11 15.2933 10.9893 15.272 10.968C15.2507 10.9467 15.24 10.9173 15.24 10.88V6.816C15.24 6.79467 15.2347 6.784 15.224 6.784C15.2133 6.77867 15.2027 6.784 15.192 6.8L14.104 8.576C14.072 8.62933 14.024 8.656 13.96 8.656H13.704C13.64 8.656 13.592 8.62933 13.56 8.576L12.48 6.8C12.4693 6.784 12.4587 6.77867 12.448 6.784C12.4373 6.784 12.432 6.79467 12.432 6.816V10.88C12.432 10.9173 12.4213 10.9467 12.4 10.968C12.3787 10.9893 12.3493 11 12.312 11H11.784ZM22.7141 5.944C22.7141 5.98133 22.7035 6.01067 22.6821 6.032C22.6608 6.05333 22.6315 6.064 22.5941 6.064H19.8021C19.7755 6.064 19.7621 6.07733 19.7621 6.104V7.808C19.7621 7.83467 19.7755 7.848 19.8021 7.848H21.7061C21.7435 7.848 21.7728 7.85867 21.7941 7.88C21.8155 7.90133 21.8261 7.93067 21.8261 7.968V8.392C21.8261 8.42933 21.8155 8.45867 21.7941 8.48C21.7728 8.50133 21.7435 8.512 21.7061 8.512H19.8021C19.7755 8.512 19.7621 8.52533 19.7621 8.552V10.296C19.7621 10.3227 19.7755 10.336 19.8021 10.336H22.5941C22.6315 10.336 22.6608 10.3467 22.6821 10.368C22.7035 10.3893 22.7141 10.4187 22.7141 10.456V10.88C22.7141 10.9173 22.7035 10.9467 22.6821 10.968C22.6608 10.9893 22.6315 11 22.5941 11H19.1141C19.0768 11 19.0475 10.9893 19.0261 10.968C19.0048 10.9467 18.9941 10.9173 18.9941 10.88V5.52C18.9941 5.48267 19.0048 5.45333 19.0261 5.432C19.0475 5.41067 19.0768 5.4 19.1141 5.4H22.5941C22.6315 5.4 22.6608 5.41067 22.6821 5.432C22.7035 5.45333 22.7141 5.48267 22.7141 5.52V5.944ZM25.6554 11C25.618 11 25.5887 10.9893 25.5674 10.968C25.546 10.9467 25.5354 10.9173 25.5354 10.88V5.52C25.5354 5.48267 25.546 5.45333 25.5674 5.432C25.5887 5.41067 25.618 5.4 25.6554 5.4H26.1674C26.2314 5.4 26.2794 5.42667 26.3114 5.48L28.7594 9.44C28.77 9.456 28.7807 9.464 28.7914 9.464C28.802 9.45867 28.8074 9.44533 28.8074 9.424V5.52C28.8074 5.48267 28.818 5.45333 28.8394 5.432C28.8607 5.41067 28.89 5.4 28.9274 5.4H29.4554C29.4927 5.4 29.522 5.41067 29.5434 5.432C29.5647 5.45333 29.5754 5.48267 29.5754 5.52V10.88C29.5754 10.9173 29.5647 10.9467 29.5434 10.968C29.522 10.9893 29.4927 11 29.4554 11H28.9354C28.8714 11 28.8234 10.9733 28.7914 10.92L26.3434 6.936C26.3327 6.92 26.322 6.91467 26.3114 6.92C26.3007 6.92 26.2954 6.93067 26.2954 6.952L26.3034 10.88C26.3034 10.9173 26.2927 10.9467 26.2714 10.968C26.25 10.9893 26.2207 11 26.1834 11H25.6554ZM34.5511 11.064C34.1618 11.064 33.8178 10.9893 33.5191 10.84C33.2258 10.6853 32.9965 10.4693 32.8311 10.192C32.6658 9.90933 32.5831 9.58667 32.5831 9.224V5.52C32.5831 5.48267 32.5938 5.45333 32.6151 5.432C32.6365 5.41067 32.6658 5.4 32.7031 5.4H33.2311C33.2685 5.4 33.2978 5.41067 33.3191 5.432C33.3405 5.45333 33.3511 5.48267 33.3511 5.52V9.24C33.3511 9.58667 33.4605 9.86667 33.6791 10.08C33.9031 10.2933 34.1938 10.4 34.5511 10.4C34.9085 10.4 35.1965 10.2933 35.4151 10.08C35.6338 9.86667 35.7431 9.58667 35.7431 9.24V5.52C35.7431 5.48267 35.7538 5.45333 35.7751 5.432C35.7965 5.41067 35.8258 5.4 35.8631 5.4H36.3911C36.4285 5.4 36.4578 5.41067 36.4791 5.432C36.5005 5.45333 36.5111 5.48267 36.5111 5.52V9.224C36.5111 9.58667 36.4285 9.90933 36.2631 10.192C36.1031 10.4693 35.8738 10.6853 35.5751 10.84C35.2818 10.9893 34.9405 11.064 34.5511 11.064Z" fill="white"/>
<defs>
<clipPath id="clip0_1_231">
<rect width="8" height="8" fill="white" transform="translate(45 4)"/>
</clipPath>
</defs>
</svg>
