<svg width="16" height="16" viewBox="0 0 16 16" fill="none" xmlns="http://www.w3.org/2000/svg">
<path d="M8 0C3.58171 0 0 3.58171 0 8C0 12.4183 3.58171 16 8 16C12.4183 16 16 12.4183 16 8C15.9952 3.58374 12.4163 0.00483871 8 0ZM8 15.4839C3.86677 15.4839 0.516129 12.1332 0.516129 8C0.516129 3.86677 3.86677 0.516129 8 0.516129C12.1332 0.516129 15.4839 3.86677 15.4839 8C15.479 12.1312 12.1312 15.479 8 15.4839Z" fill="#FF820D"/>
<g clip-path="url(#clip0_1_226)">
<path d="M9.75006 12C9.49182 12 9.23577 11.9543 8.98539 11.8634C7.88234 11.4627 6.85847 10.81 6.02445 9.97604C5.19042 9.14202 4.53779 8.11814 4.1371 7.01509C4.00834 6.66061 3.97034 6.29469 4.0242 5.92745C4.07465 5.58347 4.20789 5.24953 4.40954 4.96173C4.61208 4.67266 4.8821 4.43223 5.1904 4.26644C5.51917 4.08965 5.87801 4 6.257 4C6.37487 4 6.47674 4.08236 6.50144 4.1976L6.89383 6.02876C6.9116 6.11168 6.88611 6.19796 6.82616 6.25792L6.15568 6.9284C6.78818 8.18594 7.81451 9.21227 9.07206 9.84478L9.74253 9.17429C9.8025 9.11434 9.88879 9.08889 9.97169 9.10662L11.8029 9.49901C11.9181 9.52371 12.0005 9.62558 12.0005 9.74345C12.0005 10.1224 11.9108 10.4813 11.734 10.8101C11.5682 11.1184 11.3278 11.3884 11.0387 11.5909C10.7509 11.7926 10.417 11.9258 10.073 11.9763C9.96519 11.9921 9.85742 12 9.75006 12ZM6.05726 4.51092C5.55736 4.5661 5.11365 4.82812 4.81901 5.24865C4.48768 5.72152 4.41042 6.30314 4.60703 6.8444C5.37738 8.96503 7.03545 10.6231 9.15608 11.3934C9.69733 11.5901 10.2789 11.5128 10.7518 11.1815C11.1724 10.8868 11.4344 10.4431 11.4896 9.94322L9.99993 9.62402L9.2997 10.3242C9.22519 10.3988 9.11198 10.4185 9.01664 10.3737C7.52935 9.67502 6.32547 8.47113 5.62674 6.98385C5.58195 6.88849 5.60173 6.77528 5.67624 6.70078L6.37646 6.00056L6.05726 4.51092Z" fill="#FF820D"/>
</g>
<defs>
<clipPath id="clip0_1_226">
<rect width="8" height="8" fill="white" transform="translate(4 4)"/>
</clipPath>
</defs>
</svg>
