<svg width="20" height="20" viewBox="0 0 20 20" fill="none" xmlns="http://www.w3.org/2000/svg">
<path d="M15.9623 15.9951L0 20L4.00488 4.03767C4.00488 4.03767 7.75066 -0.498586 14.1164 5.86712C20.4821 12.2328 15.9623 15.9951 15.9623 15.9951Z" fill="#FED841"/>
<path d="M0 20L15.9623 15.9951C15.9623 15.9951 20.478 12.2361 14.1246 5.87543L0 20Z" fill="#FDB118"/>
<path d="M7.38132 15.5433C6.03195 15.8905 5.2162 17.2583 5.54648 18.608L10.4759 17.3712C10.1261 16.0119 8.74062 15.1935 7.38132 15.5433Z" fill="#FF1F2E"/>
<path d="M15.3373 4.6627C12.5504 1.87566 8.91766 0.241602 5.01793 0L4.00488 4.0377C5.1202 4.0377 6.33348 3.185 7.36289 3.46105C8.42699 3.74637 9.04859 5.1007 9.9809 5.64098C10.926 6.18867 12.4077 6.05715 13.1752 6.82477C13.9428 7.59234 13.8113 9.07399 14.359 10.0191C14.8993 10.9514 16.2536 11.573 16.5389 12.6371C16.815 13.6665 15.9623 14.8798 15.9623 15.9952L20 14.9821C19.7584 11.0823 18.1243 7.44965 15.3373 4.6627Z" fill="#BF5C15"/>
<path d="M15.3373 4.66266L13.1752 6.82473C13.9427 7.59231 13.8113 9.07395 14.359 10.0191C14.8992 10.9514 16.2536 11.573 16.5389 12.6371C16.8149 13.6665 15.9622 14.8798 15.9622 15.9951L19.9999 14.9821C19.7583 11.0823 18.1242 7.44965 15.3373 4.66266Z" fill="#994910"/>
<path d="M11.664 11.0365C11.7985 9.68455 10.8116 8.47952 9.4596 8.34501C8.10764 8.21049 6.90262 9.19742 6.7681 10.5494C6.63358 11.9013 7.62051 13.1064 8.97247 13.2409C10.3244 13.3754 11.5295 12.3885 11.664 11.0365Z" fill="#FF4D55"/>
<path d="M7.47363 12.5264C7.91887 12.9717 8.53391 13.247 9.21328 13.247C10.572 13.247 11.6735 12.1455 11.6735 10.7868C11.6735 10.1074 11.3982 9.49232 10.9529 9.04712L7.47363 12.5264Z" fill="#FF1F2E"/>
<path d="M2.56754 9.76627L1.51477 13.9624C2.67622 14.2429 3.84516 13.5288 4.12571 12.3673C4.40325 11.2183 3.707 10.0626 2.56754 9.76627Z" fill="#FF4D55"/>
<path d="M3.22852 15.6395H4.36047V16.7718H3.22852V15.6395Z" fill="#7AD425"/>
<path d="M3.22852 16.7715V16.7718H4.36051V15.6395L3.22852 16.7715Z" fill="#6EBD21"/>
<path d="M12.1188 13.4173H13.2507V14.5496H12.1188V13.4173Z" fill="#6EBD21"/>
<path d="M5.67285 6.52676H6.8048V7.65907H5.67285V6.52676Z" fill="#7AD425"/>
</svg>
