<svg width="20" height="20" viewBox="0 0 20 20" fill="none" xmlns="http://www.w3.org/2000/svg">
<g clip-path="url(#clip0_1_3598)">
<path d="M10.0002 3.33325C9.081 3.33325 8.3335 4.08071 8.3335 4.99993C8.3335 5.91915 9.08096 6.66661 10.0002 6.66661C10.9194 6.66661 11.6669 5.91915 11.6669 4.99993C11.6669 4.08071 10.9194 3.33325 10.0002 3.33325ZM10.0002 5.83325C9.5408 5.83325 9.16686 5.4593 9.16686 4.99993C9.16686 4.54056 9.5408 4.16661 10.0002 4.16661C10.4596 4.16661 10.8335 4.54056 10.8335 4.99993C10.8335 5.4593 10.4596 5.83325 10.0002 5.83325Z" fill="#FF820D"/>
<path d="M11.25 7.5H7.91668C7.68637 7.5 7.5 7.68637 7.5 7.91668V9.58336C7.5 9.81367 7.68637 10 7.91668 10H8.33336V16.25C8.33336 16.4804 8.51973 16.6667 8.75004 16.6667H11.25C11.4804 16.6667 11.6667 16.4804 11.6667 16.25V7.91668C11.6667 7.68637 11.4803 7.5 11.25 7.5ZM10.8333 15.8333H9.16664V9.58332C9.16664 9.35301 8.98027 9.16664 8.74996 9.16664H8.33328V8.33332H10.8333V15.8333H10.8333Z" fill="#FF820D"/>
<path d="M10 0C4.48609 0 0 4.48609 0 10C0 15.5139 4.48609 20 10 20C15.5139 20 20 15.5139 20 10C20 4.48609 15.5139 0 10 0ZM10 19.1667C4.94547 19.1667 0.83332 15.0545 0.83332 10C0.83332 4.94547 4.94547 0.83332 10 0.83332C15.0545 0.83332 19.1667 4.94547 19.1667 10C19.1667 15.0545 15.0545 19.1667 10 19.1667Z" fill="#FF820D"/>
</g>
<defs>
<clipPath id="clip0_1_3598">
<rect width="20" height="20" fill="white"/>
</clipPath>
</defs>
</svg>
