<svg width="20" height="21" viewBox="0 0 20 21" fill="none" xmlns="http://www.w3.org/2000/svg">
<path d="M19.9735 14.2127C19.9548 14.094 19.9263 13.9771 19.8883 13.8631C19.524 12.8494 18.4854 12.2429 17.4235 12.4238C17.0723 12.4791 16.7426 12.2392 16.6873 11.888L16.1529 8.4692C15.7144 5.57664 13.6248 3.20784 10.8095 2.41189C10.5535 0.844831 9.07556 -0.217986 7.50846 0.0380636C5.96211 0.290733 4.9028 1.73505 5.12644 3.28588C2.6998 4.82159 1.41887 7.6533 1.86776 10.4897L2.44032 14.1284C2.49276 14.479 2.2542 14.8068 1.90456 14.8647C0.838364 15.0185 0.0359056 15.9146 0.000117783 16.9913C-0.0122199 18.1859 0.946277 19.1645 2.14096 19.1768C2.14844 19.1769 2.15596 19.1769 2.16344 19.1769C2.27621 19.1768 2.38878 19.1682 2.5002 19.151L4.71976 18.802C5.49188 20.1803 7.23517 20.6718 8.61353 19.8997C9.34158 19.4919 9.85525 18.7865 10.0199 17.9684L18.172 16.6855C19.3523 16.5002 20.1589 15.3931 19.9735 14.2127ZM7.75923 1.53435C7.8344 1.52264 7.91032 1.5166 7.98638 1.51631C8.46979 1.51888 8.92007 1.7623 9.18703 2.1653H9.15242C8.88348 2.15719 8.61425 2.16492 8.3462 2.18837C8.06391 2.21533 7.7834 2.25868 7.5061 2.31817C7.44622 2.33043 7.38711 2.34775 7.32796 2.36216C7.10081 2.41552 6.87797 2.47827 6.65948 2.55255C6.63785 2.55905 6.6155 2.56265 6.59387 2.57059C6.74602 2.02684 7.20146 1.62185 7.75923 1.53435ZM7.21117 18.8229C6.90556 18.8232 6.60793 18.7251 6.36245 18.5431L8.38157 18.2265C8.10984 18.6017 7.67443 18.8236 7.21117 18.8229ZM18.4511 14.9239C18.3407 15.1052 18.156 15.2287 17.9463 15.2614L9.26059 16.6271L5.03995 17.2912L2.27812 17.7239C2.06888 17.7581 1.85534 17.6973 1.69545 17.5581C1.53228 17.4189 1.43953 17.2143 1.44236 16.9999C1.47359 16.6301 1.76035 16.3331 2.12884 16.2889C3.26458 16.1068 4.04008 15.0417 3.86453 13.9049L3.29268 10.2662C2.91816 7.86571 4.08377 5.48702 6.2103 4.31207C6.2228 4.30788 6.23506 4.30307 6.24706 4.29766C6.93721 3.92372 7.6964 3.6945 8.47816 3.62415C8.71507 3.60332 8.95307 3.59876 9.19062 3.61046L9.30888 3.61625C9.55462 3.63112 9.79909 3.66193 10.0408 3.70857C10.0488 3.70857 10.0559 3.70857 10.0639 3.70857C12.5039 4.23643 14.361 6.22171 14.7251 8.69144L15.2631 12.1102C15.4419 13.2481 16.5091 14.0258 17.6471 13.8474C18.0108 13.7764 18.3744 13.9702 18.5182 14.3118C18.5884 14.5155 18.5639 14.7401 18.4511 14.9239Z" fill="#FF820D"/>
</svg>
