<svg width="20" height="20" viewBox="0 0 20 20" fill="none" xmlns="http://www.w3.org/2000/svg">
<path d="M10.1423 9.63408C8.81873 9.63408 7.67279 9.15938 6.73621 8.22279C5.79993 7.28636 5.32507 6.14058 5.32507 4.81689C5.32507 3.49365 5.79977 2.34771 6.73636 1.41098C7.67294 0.4747 8.81888 0 10.1423 0C11.466 0 12.6118 0.4747 13.5482 1.41113C14.4846 2.34756 14.9595 3.49349 14.9595 4.81689C14.9595 6.14058 14.4846 7.28652 13.5482 8.22295C12.6115 9.15922 11.4655 9.63408 10.1423 9.63408ZM12.7193 2.23983C12.0008 1.5213 11.1579 1.17203 10.1423 1.17203C9.1268 1.17203 8.28375 1.5213 7.56506 2.23983C6.84653 2.95852 6.4971 3.80157 6.4971 4.81689C6.4971 5.83251 6.84653 6.6754 7.56506 7.39409C8.28375 8.11278 9.1268 8.46205 10.1423 8.46205C11.1576 8.46205 12.0005 8.11263 12.7193 7.39409C13.438 6.67555 13.7874 5.83251 13.7874 4.81689C13.7874 3.80157 13.438 2.95852 12.7193 2.23983Z" fill="#FF820D"/>
<path d="M1.71371 15.3789C1.74072 14.9892 1.79535 14.564 1.87576 14.1151C1.95694 13.6629 2.06146 13.2353 2.18658 12.8445C2.31598 12.4406 2.49161 12.0418 2.70905 11.6595C2.93442 11.2628 3.19931 10.9174 3.49655 10.6331C3.80737 10.3357 4.18793 10.0966 4.62799 9.92218C5.06653 9.74869 5.55252 9.6608 6.07239 9.6608C6.27655 9.6608 6.474 9.74457 6.85532 9.99283C7.09 10.1459 7.3645 10.3229 7.6709 10.5186C7.93289 10.6856 8.28781 10.842 8.7262 10.9836C9.1539 11.122 9.58817 11.1922 10.0169 11.1922C10.4454 11.1922 10.8797 11.122 11.3077 10.9836C11.7456 10.8421 12.1007 10.6857 12.3622 10.5188C12.6657 10.3249 12.9404 10.1479 13.1786 9.99268C13.5596 9.74442 13.757 9.66064 13.9612 9.66064C14.4812 9.66064 14.967 9.74869 15.4054 9.92233C15.8452 10.0964 16.2259 10.3355 16.537 10.6332C16.8343 10.9177 17.0992 11.263 17.3244 11.6595C17.5415 12.0418 17.7173 12.4405 17.8467 12.8447C17.9716 13.2355 18.0762 13.6629 18.1573 14.1151C18.2379 14.5634 18.2924 14.9887 18.3194 15.3793C18.3459 15.7613 18.3594 16.1587 18.3594 16.5604C18.3594 17.6044 18.0275 18.4495 17.373 19.0729C16.7267 19.6879 15.8716 19.9998 14.8314 19.9998H5.20126C4.16138 19.9998 3.30627 19.6879 2.65976 19.0729C2.00516 18.45 1.67328 17.6045 1.67328 16.5602C1.67343 16.1572 1.68701 15.7597 1.71371 15.3789ZM3.46786 18.2237C3.89496 18.6302 4.46198 18.8278 5.20142 18.8278H14.8314C15.571 18.8278 16.138 18.6302 16.5649 18.2239C16.9838 17.8251 17.1873 17.2809 17.1873 16.5604C17.1873 16.1856 17.175 15.8156 17.1503 15.4603C17.1262 15.1118 17.0769 14.729 17.0038 14.3222C16.9316 13.9204 16.8398 13.5434 16.7305 13.2021C16.6257 12.8748 16.4827 12.5507 16.3054 12.2385C16.1362 11.9409 15.9415 11.6856 15.7266 11.4799C15.5257 11.2875 15.2724 11.1301 14.9739 11.012C14.6979 10.9027 14.3877 10.8429 14.0509 10.8339C14.0099 10.8557 13.9368 10.8974 13.8184 10.9746C13.5774 11.1316 13.2997 11.3107 12.9927 11.5068C12.6466 11.7274 12.2008 11.9267 11.6681 12.0987C11.1235 12.2748 10.5681 12.3642 10.0168 12.3642C9.46548 12.3642 8.90991 12.2748 8.36563 12.0988C7.83249 11.9266 7.38678 11.7274 7.04025 11.5065C6.72607 11.3057 6.45615 11.1317 6.21521 10.9746C6.0968 10.8975 6.02371 10.8557 5.98267 10.8339C5.64575 10.8429 5.33554 10.9027 5.05936 11.012C4.76105 11.1301 4.50775 11.2877 4.30679 11.4799C4.09195 11.6855 3.89725 11.9408 3.72803 12.2386C3.55057 12.5507 3.40744 12.8749 3.30276 13.2019C3.19336 13.5437 3.10135 13.9206 3.02933 14.322C2.95639 14.7296 2.90695 15.1126 2.88284 15.4605V15.4608C2.85797 15.8147 2.84546 16.1845 2.84531 16.5604C2.84546 17.281 3.04901 17.8251 3.46786 18.2237Z" fill="#FF820D"/>
</svg>
