<svg width="24" height="24" viewBox="0 0 24 24" fill="none" xmlns="http://www.w3.org/2000/svg">
<path d="M14.9987 21.5999C14.379 21.5999 13.7644 21.4903 13.1635 21.272C10.5162 20.3103 8.0589 18.744 6.05723 16.7424C4.05555 14.7408 2.48923 12.2834 1.52758 9.63613C1.21855 8.78537 1.12736 7.90715 1.25661 7.02579C1.3777 6.20022 1.69749 5.39877 2.18144 4.70805C2.66754 4.01429 3.31559 3.43726 4.05551 3.03936C4.84456 2.61507 5.70579 2.3999 6.61536 2.3999C6.89825 2.3999 7.14274 2.59756 7.20202 2.87415L8.14376 7.26893C8.1864 7.46793 8.12524 7.675 7.98136 7.81892L6.37218 9.42805C7.8902 12.4462 10.3534 14.9094 13.3715 16.4274L14.9807 14.8182C15.1246 14.6743 15.3317 14.6132 15.5307 14.6558L19.9255 15.5975C20.2021 15.6568 20.3997 15.9013 20.3997 16.1842C20.3997 17.0937 20.1845 17.955 19.7602 18.7441C19.3623 19.484 18.7853 20.132 18.0915 20.6181C17.4008 21.1021 16.5994 21.4219 15.7738 21.5429C15.5151 21.5809 15.2564 21.5999 14.9987 21.5999ZM6.13597 3.6261C4.93621 3.75855 3.87132 4.3874 3.16417 5.39667C2.36897 6.53156 2.18354 7.92744 2.65543 9.22646C4.50426 14.316 8.48365 18.2954 13.5732 20.1442C14.8722 20.6161 16.2681 20.4307 17.403 19.6354C18.4123 18.9283 19.0411 17.8634 19.1736 16.6636L15.5984 15.8975L13.9179 17.5781C13.739 17.7569 13.4673 17.8044 13.2385 17.6969C9.66902 16.0199 6.77968 13.1306 5.10274 9.56113C4.99523 9.33228 5.0427 9.06057 5.22153 8.88177L6.90207 7.20124L6.13597 3.6261Z" fill="#FF820D"/>
</svg>
