<svg width="20" height="20" viewBox="0 0 20 20" fill="none" xmlns="http://www.w3.org/2000/svg">
<g clip-path="url(#clip0_1_3594)">
<path d="M10.0009 0C4.48695 0 0.000976562 4.48597 0.000976562 9.99991C0.000976562 15.5139 4.48685 20 10.0008 20C15.5148 20 20.0007 15.5139 20.0007 9.99991C20.0008 4.48597 15.5149 0 10.0009 0ZM10.0009 18.6311C5.24177 18.6311 1.36999 14.7591 1.36999 9.99991C1.3699 5.24079 5.24177 1.36893 10.0009 1.36893C14.76 1.36893 18.6319 5.24079 18.6319 9.99991C18.6319 14.7592 14.76 18.6311 10.0009 18.6311Z" fill="#FF820D"/>
<path d="M15.1597 9.86646H10.4095V4.67714C10.4095 4.29913 10.1031 3.99268 9.72499 3.99268C9.34698 3.99268 9.04053 4.29913 9.04053 4.67714V10.5509C9.04053 10.9289 9.34698 11.2354 9.72499 11.2354H15.1597C15.5378 11.2354 15.8442 10.9289 15.8442 10.5509C15.8442 10.1729 15.5377 9.86646 15.1597 9.86646Z" fill="#FF820D"/>
</g>
<defs>
<clipPath id="clip0_1_3594">
<rect width="20" height="20" fill="white"/>
</clipPath>
</defs>
</svg>
