<svg width="20" height="20" viewBox="0 0 20 20" fill="none" xmlns="http://www.w3.org/2000/svg">
<path d="M6.875 1.25H0.625C0.28 1.25 0 1.53 0 1.875V8.125C0 8.47 0.28 8.75 0.625 8.75H6.875C7.22 8.75 7.5 8.47 7.5 8.125V1.875C7.5 1.53 7.22 1.25 6.875 1.25ZM6.25 7.5H1.25V2.5H6.25V7.5Z" fill="#FF820D"/>
<path d="M6.875 11.25H0.625C0.28 11.25 0 11.53 0 11.875V18.125C0 18.47 0.28 18.75 0.625 18.75H6.875C7.22 18.75 7.5 18.47 7.5 18.125V11.875C7.5 11.53 7.22 11.25 6.875 11.25ZM6.25 17.5H1.25V12.5H6.25V17.5Z" fill="#FF820D"/>
<path d="M15 3.125H10V4.375H15V3.125Z" fill="#FF820D"/>
<path d="M20 5.625H10V6.875H20V5.625Z" fill="#FF820D"/>
<path d="M15 13.125H10V14.375H15V13.125Z" fill="#FF820D"/>
<path d="M20 15.625H10V16.875H20V15.625Z" fill="#FF820D"/>
</svg>
