<svg width="20" height="18" viewBox="0 0 20 18" fill="none" xmlns="http://www.w3.org/2000/svg">
<path d="M9.58409 10.4175C14.6471 10.4175 18.7516 9.29815 18.7516 7.91732C18.7516 6.5365 14.6471 5.41711 9.58409 5.41711C4.52104 5.41711 0.416626 6.5365 0.416626 7.91732C0.416626 9.29815 4.52104 10.4175 9.58409 10.4175Z" fill="#FAFAFA"/>
<path d="M18.7525 7.91732C18.7525 8.37568 18.2941 8.80908 17.5024 9.18411C15.9189 9.91749 12.9687 10.4175 9.58503 10.4175C6.20138 10.4175 3.25117 9.91749 1.66771 9.18411C0.875962 8.80908 0.417603 8.37572 0.417603 7.91732C0.417603 6.53389 4.51795 5.41711 9.58507 5.41711C14.6522 5.41711 18.7525 6.53389 18.7525 7.91732Z" fill="#FAFAFA"/>
<path d="M18.7516 7.50061H0.416716C0.186579 7.50061 0 7.68719 0 7.91733C0 13.2105 4.29095 17.5015 9.58414 17.5015C14.8773 17.5015 19.1683 13.2105 19.1683 7.91733C19.1683 7.68719 18.9818 7.50061 18.7516 7.50061Z" fill="#607D8B"/>
<path d="M17.5014 9.16745V9.18413C15.918 9.91751 12.9677 10.4175 9.58407 10.4175C6.20042 10.4175 3.2502 9.91751 1.66675 9.18413V9.16745C1.66675 7.52563 5.65041 6.66724 9.58411 6.66724C13.5178 6.66724 17.5014 7.52563 17.5014 9.16745Z" fill="#FFC107"/>
<path d="M9.58414 10.8342C4.82123 10.8342 0 9.83416 0 7.91732C0 6.00048 4.82123 5.0004 9.58414 5.0004C14.3471 5.0004 19.1683 6.00048 19.1683 7.91732C19.1683 9.83416 14.3471 10.8342 9.58414 10.8342ZM9.58414 5.83383C4.24201 5.83383 0.833392 7.06725 0.833392 7.91732C0.833392 8.76739 4.24201 10.0008 9.58414 10.0008C14.9263 10.0008 18.3349 8.76739 18.3349 7.91732C18.3349 7.06725 14.9263 5.83383 9.58414 5.83383Z" fill="#455A64"/>
<path d="M18.4308 1.72269e-06C17.9859 -0.000467067 17.5618 0.187947 17.264 0.518366L10.1059 8.47158C9.9517 8.64242 9.96521 8.90591 10.136 9.06011C10.2128 9.12937 10.3125 9.16762 10.4159 9.16746H12.0827C12.1847 9.1675 12.2831 9.13011 12.3594 9.06245L19.4742 2.73773C20.1209 2.16276 20.1791 1.17245 19.6041 0.52575C19.3062 0.190721 18.8791 -0.000662396 18.4308 1.72269e-06Z" fill="#CFD8DC"/>
<path d="M13.3344 9.16742H9.58407C9.35394 9.16742 9.16736 8.98084 9.16736 8.7507C9.16736 8.52056 9.35394 8.33398 9.58407 8.33398H13.3344C13.5645 8.33398 13.7511 8.52056 13.7511 8.7507C13.7511 8.98084 13.5645 9.16742 13.3344 9.16742Z" fill="#FFB300"/>
</svg>
