<svg width="208" height="350" viewBox="0 0 208 350" fill="none" xmlns="http://www.w3.org/2000/svg">
<path d="M44.132 293.272C42.364 293.272 40.8113 292.977 39.474 292.388C38.1367 291.799 37.1053 290.971 36.38 289.906C35.6547 288.841 35.292 287.594 35.292 286.166V285.588C35.292 285.203 35.4847 285.01 35.87 285.01H39.44C39.8253 285.01 40.018 285.157 40.018 285.452V285.928C40.018 286.835 40.426 287.605 41.242 288.24C42.0807 288.852 43.1687 289.158 44.506 289.158C45.7073 289.158 46.5913 288.909 47.158 288.41C47.7473 287.889 48.042 287.254 48.042 286.506C48.042 285.962 47.8607 285.509 47.498 285.146C47.1353 284.761 46.648 284.432 46.036 284.16C45.424 283.865 44.438 283.469 43.078 282.97C41.5367 282.449 40.2447 281.916 39.202 281.372C38.1593 280.828 37.2753 280.091 36.55 279.162C35.8247 278.21 35.462 277.043 35.462 275.66C35.462 274.3 35.8133 273.11 36.516 272.09C37.2187 271.07 38.1933 270.288 39.44 269.744C40.7093 269.2 42.1487 268.928 43.758 268.928C45.4807 268.928 47.022 269.234 48.382 269.846C49.742 270.458 50.796 271.319 51.544 272.43C52.3147 273.518 52.7 274.787 52.7 276.238V276.578C52.7 276.963 52.5073 277.156 52.122 277.156H48.552C48.1667 277.156 47.974 277.043 47.974 276.816V276.476C47.974 275.524 47.5773 274.719 46.784 274.062C46.0133 273.382 44.948 273.042 43.588 273.042C42.5 273.042 41.6613 273.269 41.072 273.722C40.4827 274.175 40.188 274.799 40.188 275.592C40.188 276.159 40.358 276.635 40.698 277.02C41.038 277.405 41.548 277.757 42.228 278.074C42.9307 278.391 44.0073 278.799 45.458 279.298C47.0447 279.887 48.3027 280.409 49.232 280.862C50.1613 281.293 50.9887 281.961 51.714 282.868C52.462 283.775 52.836 284.942 52.836 286.37C52.836 287.753 52.4733 288.965 51.748 290.008C51.0453 291.051 50.0367 291.855 48.722 292.422C47.43 292.989 45.9 293.272 44.132 293.272ZM66.0891 276.102C66.0891 275.717 66.2818 275.524 66.6671 275.524H70.3051C70.6904 275.524 70.8831 275.717 70.8831 276.102V292.422C70.8831 292.807 70.6904 293 70.3051 293H66.6671C66.2818 293 66.0891 292.807 66.0891 292.422V291.504C66.0891 291.413 66.0551 291.368 65.9871 291.368C65.9418 291.345 65.8964 291.368 65.8511 291.436C64.9671 292.637 63.5731 293.238 61.6691 293.238C59.9464 293.238 58.5298 292.717 57.4191 291.674C56.3084 290.631 55.7531 289.169 55.7531 287.288V276.102C55.7531 275.717 55.9458 275.524 56.3311 275.524H59.9351C60.3204 275.524 60.5131 275.717 60.5131 276.102V286.098C60.5131 287.005 60.7511 287.741 61.2271 288.308C61.7258 288.875 62.4058 289.158 63.2671 289.158C64.0378 289.158 64.6724 288.931 65.1711 288.478C65.6698 288.002 65.9758 287.39 66.0891 286.642V276.102ZM82.1004 293.272C80.2871 293.272 78.7118 292.819 77.3744 291.912C76.0598 291.005 75.1191 289.759 74.5524 288.172C74.1671 287.039 73.9744 285.701 73.9744 284.16C73.9744 282.641 74.1671 281.327 74.5524 280.216C75.0964 278.675 76.0371 277.462 77.3744 276.578C78.7118 275.694 80.2871 275.252 82.1004 275.252C83.9138 275.252 85.5004 275.705 86.8604 276.612C88.2431 277.519 89.1611 278.663 89.6144 280.046C89.7504 280.363 89.8411 280.715 89.8864 281.1V281.168C89.8864 281.463 89.7164 281.644 89.3764 281.712L85.8064 282.256L85.6364 282.29C85.3644 282.29 85.2058 282.154 85.1604 281.882L85.0584 281.406C84.8998 280.817 84.5484 280.329 84.0044 279.944C83.4604 279.559 82.8144 279.366 82.0664 279.366C81.3411 279.366 80.7291 279.547 80.2304 279.91C79.7318 280.273 79.3804 280.771 79.1764 281.406C78.9271 282.086 78.8024 283.015 78.8024 284.194C78.8024 285.373 78.9158 286.302 79.1424 286.982C79.3464 287.662 79.6978 288.195 80.1964 288.58C80.7178 288.965 81.3411 289.158 82.0664 289.158C82.7691 289.158 83.3811 288.977 83.9024 288.614C84.4464 288.229 84.8204 287.719 85.0244 287.084L85.0584 286.914C85.0811 286.823 85.1604 286.721 85.2964 286.608C85.4324 286.472 85.5798 286.415 85.7384 286.438L89.3084 286.982C89.4898 287.027 89.6144 287.107 89.6824 287.22C89.7731 287.333 89.8071 287.469 89.7844 287.628C89.7391 287.991 89.6824 288.251 89.6144 288.41C89.1384 289.929 88.2091 291.119 86.8264 291.98C85.4664 292.841 83.8911 293.272 82.1004 293.272ZM100.163 293.272C98.3496 293.272 96.7743 292.819 95.4369 291.912C94.1223 291.005 93.1816 289.759 92.6149 288.172C92.2296 287.039 92.0369 285.701 92.0369 284.16C92.0369 282.641 92.2296 281.327 92.6149 280.216C93.1589 278.675 94.0996 277.462 95.4369 276.578C96.7743 275.694 98.3496 275.252 100.163 275.252C101.976 275.252 103.563 275.705 104.923 276.612C106.306 277.519 107.224 278.663 107.677 280.046C107.813 280.363 107.904 280.715 107.949 281.1V281.168C107.949 281.463 107.779 281.644 107.439 281.712L103.869 282.256L103.699 282.29C103.427 282.29 103.268 282.154 103.223 281.882L103.121 281.406C102.962 280.817 102.611 280.329 102.067 279.944C101.523 279.559 100.877 279.366 100.129 279.366C99.4036 279.366 98.7916 279.547 98.2929 279.91C97.7943 280.273 97.4429 280.771 97.2389 281.406C96.9896 282.086 96.8649 283.015 96.8649 284.194C96.8649 285.373 96.9783 286.302 97.2049 286.982C97.4089 287.662 97.7603 288.195 98.2589 288.58C98.7803 288.965 99.4036 289.158 100.129 289.158C100.832 289.158 101.444 288.977 101.965 288.614C102.509 288.229 102.883 287.719 103.087 287.084L103.121 286.914C103.144 286.823 103.223 286.721 103.359 286.608C103.495 286.472 103.642 286.415 103.801 286.438L107.371 286.982C107.552 287.027 107.677 287.107 107.745 287.22C107.836 287.333 107.87 287.469 107.847 287.628C107.802 287.991 107.745 288.251 107.677 288.41C107.201 289.929 106.272 291.119 104.889 291.98C103.529 292.841 101.954 293.272 100.163 293.272ZM118.973 289.226C120.469 289.158 121.614 288.637 122.407 287.662C122.543 287.503 122.691 287.424 122.849 287.424C122.985 287.424 123.11 287.481 123.223 287.594L125.161 289.464C125.297 289.6 125.365 289.736 125.365 289.872C125.365 290.031 125.32 290.167 125.229 290.28C124.481 291.209 123.518 291.946 122.339 292.49C121.183 293.011 119.914 293.272 118.531 293.272C116.446 293.272 114.712 292.739 113.329 291.674C111.969 290.609 111.051 289.147 110.575 287.288C110.303 286.291 110.167 285.237 110.167 284.126C110.167 282.811 110.292 281.701 110.541 280.794C110.995 279.117 111.901 277.768 113.261 276.748C114.644 275.728 116.276 275.218 118.157 275.218C120.379 275.218 122.135 275.875 123.427 277.19C124.742 278.505 125.592 280.352 125.977 282.732C126.068 283.48 126.136 284.307 126.181 285.214C126.181 285.599 125.989 285.792 125.603 285.792H115.165C115.029 285.792 114.961 285.86 114.961 285.996C115.029 286.472 115.109 286.823 115.199 287.05C115.426 287.753 115.868 288.297 116.525 288.682C117.205 289.045 118.021 289.226 118.973 289.226ZM118.089 279.366C117.364 279.366 116.752 279.547 116.253 279.91C115.777 280.25 115.449 280.737 115.267 281.372C115.154 281.803 115.086 282.086 115.063 282.222C115.041 282.358 115.097 282.426 115.233 282.426H121.013C121.127 282.426 121.183 282.381 121.183 282.29C121.183 282.041 121.138 281.78 121.047 281.508C120.843 280.851 120.492 280.329 119.993 279.944C119.495 279.559 118.86 279.366 118.089 279.366ZM136.105 293.238C134.587 293.238 133.261 293.023 132.127 292.592C130.994 292.161 130.121 291.561 129.509 290.79C128.897 290.019 128.591 289.147 128.591 288.172V288.002C128.591 287.617 128.784 287.424 129.169 287.424H132.603C132.989 287.424 133.181 287.492 133.181 287.628V287.866C133.181 288.365 133.453 288.795 133.997 289.158C134.541 289.498 135.233 289.668 136.071 289.668C136.842 289.668 137.465 289.521 137.941 289.226C138.417 288.931 138.655 288.546 138.655 288.07C138.655 287.662 138.451 287.356 138.043 287.152C137.635 286.948 136.967 286.733 136.037 286.506C134.927 286.211 134.099 285.951 133.555 285.724C132.082 285.225 130.915 284.613 130.053 283.888C129.192 283.163 128.761 282.12 128.761 280.76C128.761 279.083 129.419 277.757 130.733 276.782C132.048 275.785 133.771 275.286 135.901 275.286C137.352 275.286 138.621 275.524 139.709 276C140.82 276.453 141.67 277.099 142.259 277.938C142.871 278.777 143.177 279.729 143.177 280.794C143.177 280.907 143.121 281.009 143.007 281.1C142.917 281.168 142.781 281.202 142.599 281.202H139.267C138.882 281.202 138.689 281.134 138.689 280.998V280.794C138.689 280.295 138.44 279.876 137.941 279.536C137.443 279.196 136.774 279.026 135.935 279.026C135.187 279.026 134.564 279.162 134.065 279.434C133.589 279.706 133.351 280.08 133.351 280.556C133.351 281.009 133.578 281.349 134.031 281.576C134.507 281.803 135.278 282.041 136.343 282.29C137.001 282.426 137.635 282.596 138.247 282.8C139.879 283.276 141.16 283.888 142.089 284.636C143.019 285.384 143.483 286.472 143.483 287.9C143.483 289.577 142.815 290.892 141.477 291.844C140.14 292.773 138.349 293.238 136.105 293.238ZM152.972 293.238C151.454 293.238 150.128 293.023 148.994 292.592C147.861 292.161 146.988 291.561 146.376 290.79C145.764 290.019 145.458 289.147 145.458 288.172V288.002C145.458 287.617 145.651 287.424 146.036 287.424H149.47C149.856 287.424 150.048 287.492 150.048 287.628V287.866C150.048 288.365 150.32 288.795 150.864 289.158C151.408 289.498 152.1 289.668 152.938 289.668C153.709 289.668 154.332 289.521 154.808 289.226C155.284 288.931 155.522 288.546 155.522 288.07C155.522 287.662 155.318 287.356 154.91 287.152C154.502 286.948 153.834 286.733 152.904 286.506C151.794 286.211 150.966 285.951 150.422 285.724C148.949 285.225 147.782 284.613 146.92 283.888C146.059 283.163 145.628 282.12 145.628 280.76C145.628 279.083 146.286 277.757 147.6 276.782C148.915 275.785 150.638 275.286 152.768 275.286C154.219 275.286 155.488 275.524 156.576 276C157.687 276.453 158.537 277.099 159.126 277.938C159.738 278.777 160.044 279.729 160.044 280.794C160.044 280.907 159.988 281.009 159.874 281.1C159.784 281.168 159.648 281.202 159.466 281.202H156.134C155.749 281.202 155.556 281.134 155.556 280.998V280.794C155.556 280.295 155.307 279.876 154.808 279.536C154.31 279.196 153.641 279.026 152.802 279.026C152.054 279.026 151.431 279.162 150.932 279.434C150.456 279.706 150.218 280.08 150.218 280.556C150.218 281.009 150.445 281.349 150.898 281.576C151.374 281.803 152.145 282.041 153.21 282.29C153.868 282.426 154.502 282.596 155.114 282.8C156.746 283.276 158.027 283.888 158.956 284.636C159.886 285.384 160.35 286.472 160.35 287.9C160.35 289.577 159.682 290.892 158.344 291.844C157.007 292.773 155.216 293.238 152.972 293.238ZM165.856 284.84C165.471 284.84 165.278 284.647 165.278 284.262L164.87 269.778C164.87 269.393 165.051 269.2 165.414 269.2H169.052C169.415 269.2 169.596 269.393 169.596 269.778L169.154 284.262C169.154 284.647 168.95 284.84 168.542 284.84H165.856ZM167.148 292.966C166.264 292.966 165.527 292.683 164.938 292.116C164.349 291.527 164.054 290.824 164.054 290.008C164.054 289.215 164.36 288.535 164.972 287.968C165.607 287.379 166.332 287.084 167.148 287.084C167.964 287.084 168.689 287.379 169.324 287.968C169.959 288.535 170.276 289.215 170.276 290.008C170.276 290.824 169.97 291.527 169.358 292.116C168.769 292.683 168.032 292.966 167.148 292.966Z" fill="black"/>
<path d="M9.12861 323.986C9.00728 323.986 8.94661 323.925 8.94661 323.804V319.702C8.94661 319.683 8.93728 319.655 8.91861 319.618L6.04861 314.424C6.02994 314.368 6.02061 314.335 6.02061 314.326C6.02061 314.289 6.03461 314.261 6.06261 314.242C6.09061 314.214 6.12794 314.2 6.17461 314.2H6.84661C6.94928 314.2 7.01928 314.242 7.05661 314.326L9.39461 318.554C9.42261 318.591 9.45061 318.591 9.47861 318.554L11.8306 314.326C11.8773 314.242 11.9473 314.2 12.0406 314.2H12.7126C12.7873 314.2 12.8339 314.223 12.8526 314.27C12.8806 314.307 12.8759 314.359 12.8386 314.424L9.96861 319.618C9.94994 319.655 9.94061 319.683 9.94061 319.702V323.804C9.94061 323.925 9.87994 323.986 9.75861 323.986H9.12861ZM16.3926 324.112C15.7113 324.112 15.128 323.939 14.6426 323.594C14.1666 323.249 13.8353 322.773 13.6486 322.166C13.518 321.737 13.4526 321.163 13.4526 320.444C13.4526 319.735 13.5133 319.165 13.6346 318.736C13.8213 318.139 14.1526 317.667 14.6286 317.322C15.114 316.977 15.702 316.804 16.3926 316.804C17.0646 316.804 17.6386 316.977 18.1146 317.322C18.6 317.667 18.9313 318.134 19.1086 318.722C19.2393 319.17 19.3046 319.744 19.3046 320.444C19.3046 321.163 19.2393 321.737 19.1086 322.166C18.922 322.773 18.586 323.249 18.1006 323.594C17.6246 323.939 17.0553 324.112 16.3926 324.112ZM16.3926 323.244C16.8406 323.244 17.2233 323.123 17.5406 322.88C17.858 322.628 18.0726 322.292 18.1846 321.872C18.2593 321.573 18.2966 321.102 18.2966 320.458C18.2966 319.786 18.2593 319.315 18.1846 319.044C18.082 318.624 17.8673 318.293 17.5406 318.05C17.2233 317.798 16.8313 317.672 16.3646 317.672C15.9166 317.672 15.534 317.798 15.2166 318.05C14.8993 318.293 14.6846 318.624 14.5726 319.044C14.498 319.315 14.4606 319.786 14.4606 320.458C14.4606 321.13 14.498 321.601 14.5726 321.872C14.6753 322.292 14.8853 322.628 15.2026 322.88C15.5293 323.123 15.926 323.244 16.3926 323.244ZM25.6032 317.098C25.6032 316.977 25.6639 316.916 25.7852 316.916H26.4152C26.5366 316.916 26.5972 316.977 26.5972 317.098V323.818C26.5972 323.939 26.5366 324 26.4152 324H25.7852C25.6639 324 25.6032 323.939 25.6032 323.818V323.286C25.6032 323.258 25.5939 323.239 25.5752 323.23C25.5566 323.221 25.5379 323.23 25.5192 323.258C25.1179 323.818 24.5019 324.098 23.6712 324.098C23.2232 324.098 22.8079 324.009 22.4252 323.832C22.0519 323.645 21.7532 323.379 21.5292 323.034C21.3146 322.689 21.2072 322.273 21.2072 321.788V317.098C21.2072 316.977 21.2679 316.916 21.3892 316.916H22.0192C22.1406 316.916 22.2012 316.977 22.2012 317.098V321.494C22.2012 322.026 22.3506 322.451 22.6492 322.768C22.9479 323.076 23.3539 323.23 23.8672 323.23C24.3992 323.23 24.8192 323.071 25.1272 322.754C25.4446 322.437 25.6032 322.017 25.6032 321.494V317.098ZM31.6811 316.846C31.9891 316.846 32.2457 316.902 32.4511 317.014C32.5444 317.051 32.5771 317.126 32.5491 317.238L32.4091 317.854C32.3811 317.966 32.3064 318.003 32.1851 317.966C32.0077 317.91 31.7791 317.887 31.4991 317.896C31.0137 317.915 30.6124 318.097 30.2951 318.442C29.9777 318.778 29.8191 319.207 29.8191 319.73V323.818C29.8191 323.939 29.7584 324 29.6371 324H29.0071C28.8857 324 28.8251 323.939 28.8251 323.818V317.098C28.8251 316.977 28.8857 316.916 29.0071 316.916H29.6371C29.7584 316.916 29.8191 316.977 29.8191 317.098V317.882C29.8191 317.919 29.8237 317.943 29.8331 317.952C29.8517 317.952 29.8704 317.938 29.8891 317.91C30.0851 317.574 30.3324 317.313 30.6311 317.126C30.9391 316.939 31.2891 316.846 31.6811 316.846ZM39.4434 324.112C38.7621 324.112 38.1788 323.939 37.6934 323.594C37.2174 323.249 36.8861 322.773 36.6994 322.166C36.5688 321.737 36.5034 321.163 36.5034 320.444C36.5034 319.735 36.5641 319.165 36.6854 318.736C36.8721 318.139 37.2034 317.667 37.6794 317.322C38.1648 316.977 38.7528 316.804 39.4434 316.804C40.1154 316.804 40.6894 316.977 41.1654 317.322C41.6508 317.667 41.9821 318.134 42.1594 318.722C42.2901 319.17 42.3554 319.744 42.3554 320.444C42.3554 321.163 42.2901 321.737 42.1594 322.166C41.9728 322.773 41.6368 323.249 41.1514 323.594C40.6754 323.939 40.1061 324.112 39.4434 324.112ZM39.4434 323.244C39.8914 323.244 40.2741 323.123 40.5914 322.88C40.9088 322.628 41.1234 322.292 41.2354 321.872C41.3101 321.573 41.3474 321.102 41.3474 320.458C41.3474 319.786 41.3101 319.315 41.2354 319.044C41.1328 318.624 40.9181 318.293 40.5914 318.05C40.2741 317.798 39.8821 317.672 39.4154 317.672C38.9674 317.672 38.5848 317.798 38.2674 318.05C37.9501 318.293 37.7354 318.624 37.6234 319.044C37.5488 319.315 37.5114 319.786 37.5114 320.458C37.5114 321.13 37.5488 321.601 37.6234 321.872C37.7261 322.292 37.9361 322.628 38.2534 322.88C38.5801 323.123 38.9768 323.244 39.4434 323.244ZM47.226 316.846C47.534 316.846 47.7907 316.902 47.996 317.014C48.0893 317.051 48.122 317.126 48.094 317.238L47.954 317.854C47.926 317.966 47.8513 318.003 47.73 317.966C47.5527 317.91 47.324 317.887 47.044 317.896C46.5587 317.915 46.1573 318.097 45.84 318.442C45.5227 318.778 45.364 319.207 45.364 319.73V323.818C45.364 323.939 45.3033 324 45.182 324H44.552C44.4307 324 44.37 323.939 44.37 323.818V317.098C44.37 316.977 44.4307 316.916 44.552 316.916H45.182C45.3033 316.916 45.364 316.977 45.364 317.098V317.882C45.364 317.919 45.3687 317.943 45.378 317.952C45.3967 317.952 45.4153 317.938 45.434 317.91C45.63 317.574 45.8773 317.313 46.176 317.126C46.484 316.939 46.834 316.846 47.226 316.846ZM53.6595 314.382C53.6595 314.261 53.7202 314.2 53.8415 314.2H54.4715C54.5929 314.2 54.6535 314.261 54.6535 314.382V323.818C54.6535 323.939 54.5929 324 54.4715 324H53.8415C53.7202 324 53.6595 323.939 53.6595 323.818V323.286C53.6595 323.258 53.6502 323.244 53.6315 323.244C53.6129 323.235 53.5942 323.239 53.5755 323.258C53.3702 323.529 53.1135 323.739 52.8055 323.888C52.5069 324.037 52.1709 324.112 51.7975 324.112C51.1442 324.112 50.5935 323.944 50.1455 323.608C49.7069 323.272 49.4035 322.815 49.2355 322.236C49.1049 321.816 49.0395 321.223 49.0395 320.458C49.0395 319.683 49.0955 319.105 49.2075 318.722C49.3755 318.125 49.6835 317.658 50.1315 317.322C50.5795 316.977 51.1349 316.804 51.7975 316.804C52.1615 316.804 52.4975 316.879 52.8055 317.028C53.1135 317.168 53.3702 317.373 53.5755 317.644C53.5942 317.672 53.6129 317.681 53.6315 317.672C53.6502 317.663 53.6595 317.644 53.6595 317.616V314.382ZM53.3935 322.166C53.4775 321.979 53.5382 321.76 53.5755 321.508C53.6129 321.256 53.6315 320.906 53.6315 320.458C53.6315 320.01 53.6129 319.66 53.5755 319.408C53.5382 319.147 53.4729 318.918 53.3795 318.722C53.2675 318.405 53.0809 318.153 52.8195 317.966C52.5675 317.77 52.2642 317.672 51.9095 317.672C51.5362 317.672 51.2142 317.765 50.9435 317.952C50.6729 318.139 50.4769 318.386 50.3555 318.694C50.2435 318.899 50.1595 319.133 50.1035 319.394C50.0569 319.646 50.0335 320.001 50.0335 320.458C50.0335 320.897 50.0522 321.242 50.0895 321.494C50.1269 321.737 50.1922 321.956 50.2855 322.152C50.3975 322.488 50.5935 322.754 50.8735 322.95C51.1629 323.146 51.5035 323.244 51.8955 323.244C52.2689 323.244 52.5815 323.146 52.8335 322.95C53.0855 322.754 53.2722 322.493 53.3935 322.166ZM59.6514 323.258C60.0714 323.249 60.4308 323.155 60.7294 322.978C61.0374 322.791 61.2754 322.535 61.4434 322.208C61.4621 322.161 61.4948 322.129 61.5414 322.11C61.5881 322.091 61.6348 322.096 61.6814 322.124L62.0874 322.348C62.1994 322.413 62.2274 322.493 62.1714 322.586C61.9474 323.053 61.6114 323.426 61.1634 323.706C60.7154 323.977 60.1834 324.112 59.5674 324.112C58.9141 324.112 58.3634 323.958 57.9154 323.65C57.4674 323.342 57.1454 322.913 56.9494 322.362C56.7721 321.895 56.6834 321.251 56.6834 320.43C56.6834 320.029 56.6881 319.711 56.6974 319.478C56.7161 319.235 56.7534 319.011 56.8094 318.806C56.9681 318.199 57.2854 317.714 57.7614 317.35C58.2468 316.986 58.8301 316.804 59.5114 316.804C60.3234 316.804 60.9581 317.014 61.4154 317.434C61.8821 317.854 62.1808 318.447 62.3114 319.212C62.3674 319.511 62.3954 319.977 62.3954 320.612C62.3954 320.733 62.3348 320.794 62.2134 320.794H57.7334C57.6868 320.794 57.6634 320.817 57.6634 320.864C57.6634 321.331 57.6914 321.671 57.7474 321.886C57.8501 322.306 58.0648 322.642 58.3914 322.894C58.7274 323.137 59.1474 323.258 59.6514 323.258ZM59.5114 317.672C59.0448 317.672 58.6621 317.793 58.3634 318.036C58.0648 318.269 57.8688 318.587 57.7754 318.988C57.7194 319.175 57.6821 319.492 57.6634 319.94C57.6634 319.987 57.6868 320.01 57.7334 320.01H61.3314C61.3781 320.01 61.4014 319.987 61.4014 319.94C61.3828 319.529 61.3548 319.231 61.3174 319.044C61.2148 318.624 61.0048 318.293 60.6874 318.05C60.3794 317.798 59.9874 317.672 59.5114 317.672ZM67.228 316.846C67.536 316.846 67.7926 316.902 67.998 317.014C68.0913 317.051 68.124 317.126 68.096 317.238L67.956 317.854C67.928 317.966 67.8533 318.003 67.732 317.966C67.5546 317.91 67.326 317.887 67.046 317.896C66.5606 317.915 66.1593 318.097 65.842 318.442C65.5246 318.778 65.366 319.207 65.366 319.73V323.818C65.366 323.939 65.3053 324 65.184 324H64.554C64.4326 324 64.372 323.939 64.372 323.818V317.098C64.372 316.977 64.4326 316.916 64.554 316.916H65.184C65.3053 316.916 65.366 316.977 65.366 317.098V317.882C65.366 317.919 65.3706 317.943 65.38 317.952C65.3986 317.952 65.4173 317.938 65.436 317.91C65.632 317.574 65.8793 317.313 66.178 317.126C66.486 316.939 66.836 316.846 67.228 316.846ZM73.7723 324C73.6696 324 73.6043 323.949 73.5763 323.846L71.6163 317.126C71.607 317.107 71.6023 317.084 71.6023 317.056C71.6023 317.019 71.6163 316.986 71.6443 316.958C71.6816 316.93 71.7236 316.916 71.7703 316.916H72.4283C72.531 316.916 72.5963 316.967 72.6243 317.07L74.0803 322.53C74.0896 322.558 74.1036 322.572 74.1223 322.572C74.141 322.572 74.155 322.558 74.1643 322.53L75.6623 317.07C75.6903 316.967 75.7556 316.916 75.8583 316.916H76.4743C76.577 316.916 76.6423 316.967 76.6703 317.07L78.1963 322.53C78.2056 322.558 78.2196 322.572 78.2383 322.572C78.257 322.572 78.271 322.558 78.2803 322.53L79.7783 317.07C79.8063 316.967 79.8763 316.916 79.9883 316.916L80.6323 316.93C80.6976 316.93 80.7443 316.949 80.7723 316.986C80.8003 317.023 80.805 317.075 80.7863 317.14L78.7983 323.846C78.7703 323.949 78.705 324 78.6023 324H77.9163C77.8136 324 77.7483 323.949 77.7203 323.846L76.2083 318.68C76.199 318.652 76.185 318.638 76.1663 318.638C76.1476 318.638 76.1336 318.652 76.1243 318.68L74.6683 323.846C74.6403 323.949 74.575 324 74.4723 324H73.7723ZM82.9661 315.642C82.7421 315.642 82.5601 315.577 82.4201 315.446C82.2801 315.306 82.2101 315.129 82.2101 314.914C82.2101 314.699 82.2801 314.527 82.4201 314.396C82.5601 314.265 82.7421 314.2 82.9661 314.2C83.1901 314.2 83.3721 314.265 83.5121 314.396C83.6521 314.527 83.7221 314.699 83.7221 314.914C83.7221 315.129 83.6521 315.306 83.5121 315.446C83.3721 315.577 83.1901 315.642 82.9661 315.642ZM82.6581 324C82.5368 324 82.4761 323.939 82.4761 323.818V317.098C82.4761 316.977 82.5368 316.916 82.6581 316.916H83.2881C83.4095 316.916 83.4701 316.977 83.4701 317.098V323.818C83.4701 323.939 83.4095 324 83.2881 324H82.6581ZM85.9778 324C85.8564 324 85.7958 323.939 85.7958 323.818V314.382C85.7958 314.261 85.8564 314.2 85.9778 314.2H86.6078C86.7291 314.2 86.7898 314.261 86.7898 314.382V323.818C86.7898 323.939 86.7291 324 86.6078 324H85.9778ZM89.2317 324C89.1104 324 89.0497 323.939 89.0497 323.818V314.382C89.0497 314.261 89.1104 314.2 89.2317 314.2H89.8617C89.983 314.2 90.0437 314.261 90.0437 314.382V323.818C90.0437 323.939 89.983 324 89.8617 324H89.2317ZM100.552 318.722C100.664 319.105 100.72 319.683 100.72 320.458C100.72 321.223 100.655 321.816 100.524 322.236C100.356 322.815 100.048 323.272 99.6003 323.608C99.1617 323.944 98.6157 324.112 97.9623 324.112C97.589 324.112 97.2483 324.037 96.9403 323.888C96.6417 323.739 96.3897 323.529 96.1843 323.258C96.1657 323.239 96.147 323.235 96.1283 323.244C96.1097 323.244 96.1003 323.258 96.1003 323.286V323.818C96.1003 323.939 96.0397 324 95.9183 324H95.2883C95.167 324 95.1063 323.939 95.1063 323.818V314.382C95.1063 314.261 95.167 314.2 95.2883 314.2H95.9183C96.0397 314.2 96.1003 314.261 96.1003 314.382V317.616C96.1003 317.644 96.1097 317.663 96.1283 317.672C96.147 317.681 96.1657 317.672 96.1843 317.644C96.3897 317.373 96.6463 317.168 96.9543 317.028C97.2623 316.879 97.5983 316.804 97.9623 316.804C98.625 316.804 99.1803 316.977 99.6283 317.322C100.076 317.658 100.384 318.125 100.552 318.722ZM99.4743 322.152C99.5677 321.956 99.633 321.737 99.6703 321.494C99.7077 321.242 99.7263 320.897 99.7263 320.458C99.7263 320.001 99.6983 319.646 99.6423 319.394C99.5957 319.133 99.5163 318.899 99.4043 318.694C99.283 318.386 99.087 318.139 98.8163 317.952C98.5457 317.765 98.2237 317.672 97.8503 317.672C97.4957 317.672 97.1877 317.77 96.9263 317.966C96.6743 318.153 96.4923 318.405 96.3803 318.722C96.287 318.918 96.2217 319.147 96.1843 319.408C96.147 319.66 96.1283 320.01 96.1283 320.458C96.1283 320.906 96.147 321.256 96.1843 321.508C96.2217 321.76 96.2823 321.979 96.3663 322.166C96.4877 322.493 96.6743 322.754 96.9263 322.95C97.1783 323.146 97.491 323.244 97.8643 323.244C98.2563 323.244 98.5923 323.146 98.8723 322.95C99.1617 322.754 99.3623 322.488 99.4743 322.152ZM105.452 323.258C105.872 323.249 106.232 323.155 106.53 322.978C106.838 322.791 107.076 322.535 107.244 322.208C107.263 322.161 107.296 322.129 107.342 322.11C107.389 322.091 107.436 322.096 107.482 322.124L107.888 322.348C108 322.413 108.028 322.493 107.972 322.586C107.748 323.053 107.412 323.426 106.964 323.706C106.516 323.977 105.984 324.112 105.368 324.112C104.715 324.112 104.164 323.958 103.716 323.65C103.268 323.342 102.946 322.913 102.75 322.362C102.573 321.895 102.484 321.251 102.484 320.43C102.484 320.029 102.489 319.711 102.498 319.478C102.517 319.235 102.554 319.011 102.61 318.806C102.769 318.199 103.086 317.714 103.562 317.35C104.048 316.986 104.631 316.804 105.312 316.804C106.124 316.804 106.759 317.014 107.216 317.434C107.683 317.854 107.982 318.447 108.112 319.212C108.168 319.511 108.196 319.977 108.196 320.612C108.196 320.733 108.136 320.794 108.014 320.794H103.534C103.488 320.794 103.464 320.817 103.464 320.864C103.464 321.331 103.492 321.671 103.548 321.886C103.651 322.306 103.866 322.642 104.192 322.894C104.528 323.137 104.948 323.258 105.452 323.258ZM105.312 317.672C104.846 317.672 104.463 317.793 104.164 318.036C103.866 318.269 103.67 318.587 103.576 318.988C103.52 319.175 103.483 319.492 103.464 319.94C103.464 319.987 103.488 320.01 103.534 320.01H107.132C107.179 320.01 107.202 319.987 107.202 319.94C107.184 319.529 107.156 319.231 107.118 319.044C107.016 318.624 106.806 318.293 106.488 318.05C106.18 317.798 105.788 317.672 105.312 317.672ZM117.329 314.382C117.329 314.261 117.39 314.2 117.511 314.2H118.141C118.263 314.2 118.323 314.261 118.323 314.382V323.818C118.323 323.939 118.263 324 118.141 324H117.511C117.39 324 117.329 323.939 117.329 323.818V323.286C117.329 323.258 117.32 323.244 117.301 323.244C117.283 323.235 117.264 323.239 117.245 323.258C117.04 323.529 116.783 323.739 116.475 323.888C116.177 324.037 115.841 324.112 115.467 324.112C114.814 324.112 114.263 323.944 113.815 323.608C113.377 323.272 113.073 322.815 112.905 322.236C112.775 321.816 112.709 321.223 112.709 320.458C112.709 319.683 112.765 319.105 112.877 318.722C113.045 318.125 113.353 317.658 113.801 317.322C114.249 316.977 114.805 316.804 115.467 316.804C115.831 316.804 116.167 316.879 116.475 317.028C116.783 317.168 117.04 317.373 117.245 317.644C117.264 317.672 117.283 317.681 117.301 317.672C117.32 317.663 117.329 317.644 117.329 317.616V314.382ZM117.063 322.166C117.147 321.979 117.208 321.76 117.245 321.508C117.283 321.256 117.301 320.906 117.301 320.458C117.301 320.01 117.283 319.66 117.245 319.408C117.208 319.147 117.143 318.918 117.049 318.722C116.937 318.405 116.751 318.153 116.489 317.966C116.237 317.77 115.934 317.672 115.579 317.672C115.206 317.672 114.884 317.765 114.613 317.952C114.343 318.139 114.147 318.386 114.025 318.694C113.913 318.899 113.829 319.133 113.773 319.394C113.727 319.646 113.703 320.001 113.703 320.458C113.703 320.897 113.722 321.242 113.759 321.494C113.797 321.737 113.862 321.956 113.955 322.152C114.067 322.488 114.263 322.754 114.543 322.95C114.833 323.146 115.173 323.244 115.565 323.244C115.939 323.244 116.251 323.146 116.503 322.95C116.755 322.754 116.942 322.493 117.063 322.166ZM123.321 323.258C123.741 323.249 124.101 323.155 124.399 322.978C124.707 322.791 124.945 322.535 125.113 322.208C125.132 322.161 125.165 322.129 125.211 322.11C125.258 322.091 125.305 322.096 125.351 322.124L125.757 322.348C125.869 322.413 125.897 322.493 125.841 322.586C125.617 323.053 125.281 323.426 124.833 323.706C124.385 323.977 123.853 324.112 123.237 324.112C122.584 324.112 122.033 323.958 121.585 323.65C121.137 323.342 120.815 322.913 120.619 322.362C120.442 321.895 120.353 321.251 120.353 320.43C120.353 320.029 120.358 319.711 120.367 319.478C120.386 319.235 120.423 319.011 120.479 318.806C120.638 318.199 120.955 317.714 121.431 317.35C121.917 316.986 122.5 316.804 123.181 316.804C123.993 316.804 124.628 317.014 125.085 317.434C125.552 317.854 125.851 318.447 125.981 319.212C126.037 319.511 126.065 319.977 126.065 320.612C126.065 320.733 126.005 320.794 125.883 320.794H121.403C121.357 320.794 121.333 320.817 121.333 320.864C121.333 321.331 121.361 321.671 121.417 321.886C121.52 322.306 121.735 322.642 122.061 322.894C122.397 323.137 122.817 323.258 123.321 323.258ZM123.181 317.672C122.715 317.672 122.332 317.793 122.033 318.036C121.735 318.269 121.539 318.587 121.445 318.988C121.389 319.175 121.352 319.492 121.333 319.94C121.333 319.987 121.357 320.01 121.403 320.01H125.001C125.048 320.01 125.071 319.987 125.071 319.94C125.053 319.529 125.025 319.231 124.987 319.044C124.885 318.624 124.675 318.293 124.357 318.05C124.049 317.798 123.657 317.672 123.181 317.672ZM128.224 324C128.103 324 128.042 323.939 128.042 323.818V314.382C128.042 314.261 128.103 314.2 128.224 314.2H128.854C128.975 314.2 129.036 314.261 129.036 314.382V323.818C129.036 323.939 128.975 324 128.854 324H128.224ZM131.898 315.642C131.674 315.642 131.492 315.577 131.352 315.446C131.212 315.306 131.142 315.129 131.142 314.914C131.142 314.699 131.212 314.527 131.352 314.396C131.492 314.265 131.674 314.2 131.898 314.2C132.122 314.2 132.304 314.265 132.444 314.396C132.584 314.527 132.654 314.699 132.654 314.914C132.654 315.129 132.584 315.306 132.444 315.446C132.304 315.577 132.122 315.642 131.898 315.642ZM131.59 324C131.468 324 131.408 323.939 131.408 323.818V317.098C131.408 316.977 131.468 316.916 131.59 316.916H132.22C132.341 316.916 132.402 316.977 132.402 317.098V323.818C132.402 323.939 132.341 324 132.22 324H131.59ZM136.561 324C136.449 324 136.379 323.949 136.351 323.846L134.083 317.126C134.074 317.107 134.069 317.084 134.069 317.056C134.069 317.019 134.083 316.986 134.111 316.958C134.149 316.93 134.191 316.916 134.237 316.916H134.951C135.054 316.916 135.119 316.967 135.147 317.07L136.897 322.516C136.907 322.553 136.921 322.572 136.939 322.572C136.958 322.572 136.972 322.553 136.981 322.516L138.731 317.07C138.759 316.967 138.825 316.916 138.927 316.916L139.641 316.93C139.707 316.93 139.749 316.949 139.767 316.986C139.795 317.023 139.8 317.075 139.781 317.14L137.527 323.846C137.499 323.949 137.429 324 137.317 324H136.561ZM143.898 323.258C144.318 323.249 144.677 323.155 144.976 322.978C145.284 322.791 145.522 322.535 145.69 322.208C145.708 322.161 145.741 322.129 145.788 322.11C145.834 322.091 145.881 322.096 145.928 322.124L146.334 322.348C146.446 322.413 146.474 322.493 146.418 322.586C146.194 323.053 145.858 323.426 145.41 323.706C144.962 323.977 144.43 324.112 143.814 324.112C143.16 324.112 142.61 323.958 142.162 323.65C141.714 323.342 141.392 322.913 141.196 322.362C141.018 321.895 140.93 321.251 140.93 320.43C140.93 320.029 140.934 319.711 140.944 319.478C140.962 319.235 141 319.011 141.056 318.806C141.214 318.199 141.532 317.714 142.008 317.35C142.493 316.986 143.076 316.804 143.758 316.804C144.57 316.804 145.204 317.014 145.662 317.434C146.128 317.854 146.427 318.447 146.558 319.212C146.614 319.511 146.642 319.977 146.642 320.612C146.642 320.733 146.581 320.794 146.46 320.794H141.98C141.933 320.794 141.91 320.817 141.91 320.864C141.91 321.331 141.938 321.671 141.994 321.886C142.096 322.306 142.311 322.642 142.638 322.894C142.974 323.137 143.394 323.258 143.898 323.258ZM143.758 317.672C143.291 317.672 142.908 317.793 142.61 318.036C142.311 318.269 142.115 318.587 142.022 318.988C141.966 319.175 141.928 319.492 141.91 319.94C141.91 319.987 141.933 320.01 141.98 320.01H145.578C145.624 320.01 145.648 319.987 145.648 319.94C145.629 319.529 145.601 319.231 145.564 319.044C145.461 318.624 145.251 318.293 144.934 318.05C144.626 317.798 144.234 317.672 143.758 317.672ZM151.474 316.846C151.782 316.846 152.039 316.902 152.244 317.014C152.337 317.051 152.37 317.126 152.342 317.238L152.202 317.854C152.174 317.966 152.099 318.003 151.978 317.966C151.801 317.91 151.572 317.887 151.292 317.896C150.807 317.915 150.405 318.097 150.088 318.442C149.771 318.778 149.612 319.207 149.612 319.73V323.818C149.612 323.939 149.551 324 149.43 324H148.8C148.679 324 148.618 323.939 148.618 323.818V317.098C148.618 316.977 148.679 316.916 148.8 316.916H149.43C149.551 316.916 149.612 316.977 149.612 317.098V317.882C149.612 317.919 149.617 317.943 149.626 317.952C149.645 317.952 149.663 317.938 149.682 317.91C149.878 317.574 150.125 317.313 150.424 317.126C150.732 316.939 151.082 316.846 151.474 316.846ZM156.407 323.258C156.827 323.249 157.187 323.155 157.485 322.978C157.793 322.791 158.031 322.535 158.199 322.208C158.218 322.161 158.251 322.129 158.297 322.11C158.344 322.091 158.391 322.096 158.437 322.124L158.843 322.348C158.955 322.413 158.983 322.493 158.927 322.586C158.703 323.053 158.367 323.426 157.919 323.706C157.471 323.977 156.939 324.112 156.323 324.112C155.67 324.112 155.119 323.958 154.671 323.65C154.223 323.342 153.901 322.913 153.705 322.362C153.528 321.895 153.439 321.251 153.439 320.43C153.439 320.029 153.444 319.711 153.453 319.478C153.472 319.235 153.509 319.011 153.565 318.806C153.724 318.199 154.041 317.714 154.517 317.35C155.003 316.986 155.586 316.804 156.267 316.804C157.079 316.804 157.714 317.014 158.171 317.434C158.638 317.854 158.937 318.447 159.067 319.212C159.123 319.511 159.151 319.977 159.151 320.612C159.151 320.733 159.091 320.794 158.969 320.794H154.489C154.443 320.794 154.419 320.817 154.419 320.864C154.419 321.331 154.447 321.671 154.503 321.886C154.606 322.306 154.821 322.642 155.147 322.894C155.483 323.137 155.903 323.258 156.407 323.258ZM156.267 317.672C155.801 317.672 155.418 317.793 155.119 318.036C154.821 318.269 154.625 318.587 154.531 318.988C154.475 319.175 154.438 319.492 154.419 319.94C154.419 319.987 154.443 320.01 154.489 320.01H158.087C158.134 320.01 158.157 319.987 158.157 319.94C158.139 319.529 158.111 319.231 158.073 319.044C157.971 318.624 157.761 318.293 157.443 318.05C157.135 317.798 156.743 317.672 156.267 317.672ZM165.482 314.382C165.482 314.261 165.542 314.2 165.664 314.2H166.294C166.415 314.2 166.476 314.261 166.476 314.382V323.818C166.476 323.939 166.415 324 166.294 324H165.664C165.542 324 165.482 323.939 165.482 323.818V323.286C165.482 323.258 165.472 323.244 165.454 323.244C165.435 323.235 165.416 323.239 165.398 323.258C165.192 323.529 164.936 323.739 164.628 323.888C164.329 324.037 163.993 324.112 163.62 324.112C162.966 324.112 162.416 323.944 161.968 323.608C161.529 323.272 161.226 322.815 161.058 322.236C160.927 321.816 160.862 321.223 160.862 320.458C160.862 319.683 160.918 319.105 161.03 318.722C161.198 318.125 161.506 317.658 161.954 317.322C162.402 316.977 162.957 316.804 163.62 316.804C163.984 316.804 164.32 316.879 164.628 317.028C164.936 317.168 165.192 317.373 165.398 317.644C165.416 317.672 165.435 317.681 165.454 317.672C165.472 317.663 165.482 317.644 165.482 317.616V314.382ZM165.216 322.166C165.3 321.979 165.36 321.76 165.398 321.508C165.435 321.256 165.454 320.906 165.454 320.458C165.454 320.01 165.435 319.66 165.398 319.408C165.36 319.147 165.295 318.918 165.202 318.722C165.09 318.405 164.903 318.153 164.642 317.966C164.39 317.77 164.086 317.672 163.732 317.672C163.358 317.672 163.036 317.765 162.766 317.952C162.495 318.139 162.299 318.386 162.178 318.694C162.066 318.899 161.982 319.133 161.926 319.394C161.879 319.646 161.856 320.001 161.856 320.458C161.856 320.897 161.874 321.242 161.912 321.494C161.949 321.737 162.014 321.956 162.108 322.152C162.22 322.488 162.416 322.754 162.696 322.95C162.985 323.146 163.326 323.244 163.718 323.244C164.091 323.244 164.404 323.146 164.656 322.95C164.908 322.754 165.094 322.493 165.216 322.166ZM173.842 324.07C173.32 324.07 172.853 323.986 172.442 323.818C172.041 323.65 171.728 323.426 171.504 323.146C171.29 322.866 171.182 322.553 171.182 322.208V322.082C171.182 321.961 171.243 321.9 171.364 321.9H171.966C172.022 321.9 172.064 321.914 172.092 321.942C172.13 321.961 172.148 321.989 172.148 322.026V322.152C172.148 322.46 172.307 322.731 172.624 322.964C172.942 323.188 173.343 323.3 173.828 323.3C174.314 323.3 174.706 323.193 175.004 322.978C175.303 322.754 175.452 322.474 175.452 322.138C175.452 321.905 175.378 321.713 175.228 321.564C175.079 321.415 174.897 321.298 174.682 321.214C174.468 321.13 174.146 321.023 173.716 320.892C173.194 320.743 172.764 320.593 172.428 320.444C172.092 320.295 171.808 320.089 171.574 319.828C171.341 319.557 171.224 319.217 171.224 318.806C171.224 318.209 171.458 317.733 171.924 317.378C172.4 317.023 173.021 316.846 173.786 316.846C174.3 316.846 174.752 316.93 175.144 317.098C175.546 317.266 175.854 317.499 176.068 317.798C176.283 318.087 176.39 318.414 176.39 318.778C176.39 318.899 176.33 318.96 176.208 318.96H175.634C175.513 318.96 175.452 318.927 175.452 318.862V318.778C175.452 318.461 175.298 318.195 174.99 317.98C174.692 317.765 174.286 317.658 173.772 317.658C173.296 317.658 172.914 317.756 172.624 317.952C172.335 318.139 172.19 318.4 172.19 318.736C172.19 319.053 172.326 319.296 172.596 319.464C172.876 319.632 173.31 319.8 173.898 319.968C174.44 320.117 174.878 320.262 175.214 320.402C175.55 320.542 175.84 320.747 176.082 321.018C176.325 321.289 176.446 321.639 176.446 322.068C176.446 322.675 176.208 323.16 175.732 323.524C175.266 323.888 174.636 324.07 173.842 324.07ZM180.988 324.112C180.307 324.112 179.724 323.939 179.238 323.594C178.762 323.249 178.431 322.773 178.244 322.166C178.114 321.737 178.048 321.163 178.048 320.444C178.048 319.735 178.109 319.165 178.23 318.736C178.417 318.139 178.748 317.667 179.224 317.322C179.71 316.977 180.298 316.804 180.988 316.804C181.66 316.804 182.234 316.977 182.71 317.322C183.196 317.667 183.527 318.134 183.704 318.722C183.835 319.17 183.9 319.744 183.9 320.444C183.9 321.163 183.835 321.737 183.704 322.166C183.518 322.773 183.182 323.249 182.696 323.594C182.22 323.939 181.651 324.112 180.988 324.112ZM180.988 323.244C181.436 323.244 181.819 323.123 182.136 322.88C182.454 322.628 182.668 322.292 182.78 321.872C182.855 321.573 182.892 321.102 182.892 320.458C182.892 319.786 182.855 319.315 182.78 319.044C182.678 318.624 182.463 318.293 182.136 318.05C181.819 317.798 181.427 317.672 180.96 317.672C180.512 317.672 180.13 317.798 179.812 318.05C179.495 318.293 179.28 318.624 179.168 319.044C179.094 319.315 179.056 319.786 179.056 320.458C179.056 321.13 179.094 321.601 179.168 321.872C179.271 322.292 179.481 322.628 179.798 322.88C180.125 323.123 180.522 323.244 180.988 323.244ZM188.631 324.112C187.95 324.112 187.366 323.939 186.881 323.594C186.405 323.249 186.074 322.773 185.887 322.166C185.756 321.737 185.691 321.163 185.691 320.444C185.691 319.735 185.752 319.165 185.873 318.736C186.06 318.139 186.391 317.667 186.867 317.322C187.352 316.977 187.94 316.804 188.631 316.804C189.303 316.804 189.877 316.977 190.353 317.322C190.838 317.667 191.17 318.134 191.347 318.722C191.478 319.17 191.543 319.744 191.543 320.444C191.543 321.163 191.478 321.737 191.347 322.166C191.16 322.773 190.824 323.249 190.339 323.594C189.863 323.939 189.294 324.112 188.631 324.112ZM188.631 323.244C189.079 323.244 189.462 323.123 189.779 322.88C190.096 322.628 190.311 322.292 190.423 321.872C190.498 321.573 190.535 321.102 190.535 320.458C190.535 319.786 190.498 319.315 190.423 319.044C190.32 318.624 190.106 318.293 189.779 318.05C189.462 317.798 189.07 317.672 188.603 317.672C188.155 317.672 187.772 317.798 187.455 318.05C187.138 318.293 186.923 318.624 186.811 319.044C186.736 319.315 186.699 319.786 186.699 320.458C186.699 321.13 186.736 321.601 186.811 321.872C186.914 322.292 187.124 322.628 187.441 322.88C187.768 323.123 188.164 323.244 188.631 323.244ZM196.498 316.818C197.235 316.818 197.823 317.037 198.262 317.476C198.71 317.915 198.934 318.503 198.934 319.24V323.818C198.934 323.939 198.873 324 198.752 324H198.122C198 324 197.94 323.939 197.94 323.818V319.436C197.94 318.913 197.786 318.493 197.478 318.176C197.17 317.849 196.768 317.686 196.274 317.686C195.798 317.686 195.401 317.821 195.084 318.092C194.776 318.363 194.598 318.717 194.552 319.156V323.818C194.552 323.939 194.491 324 194.37 324H193.74C193.618 324 193.558 323.939 193.558 323.818V317.098C193.558 316.977 193.618 316.916 193.74 316.916H194.37C194.491 316.916 194.552 316.977 194.552 317.098V317.616C194.552 317.644 194.561 317.667 194.58 317.686C194.598 317.695 194.612 317.686 194.622 317.658C195.032 317.098 195.658 316.818 196.498 316.818ZM201.574 323.958C201.322 323.958 201.112 323.879 200.944 323.72C200.785 323.561 200.706 323.365 200.706 323.132C200.706 322.908 200.79 322.717 200.958 322.558C201.135 322.39 201.34 322.306 201.574 322.306C201.798 322.306 201.998 322.39 202.176 322.558C202.353 322.717 202.442 322.908 202.442 323.132C202.442 323.365 202.358 323.561 202.19 323.72C202.022 323.879 201.816 323.958 201.574 323.958ZM15.5482 335.2C15.6695 335.2 15.7302 335.261 15.7302 335.382V335.9C15.7302 336.021 15.6695 336.082 15.5482 336.082H12.8602C12.8135 336.082 12.7902 336.105 12.7902 336.152V344.818C12.7902 344.939 12.7295 345 12.6082 345H11.9782C11.8569 345 11.7962 344.939 11.7962 344.818V336.152C11.7962 336.105 11.7729 336.082 11.7262 336.082H9.15021C9.02888 336.082 8.96821 336.021 8.96821 335.9V335.382C8.96821 335.261 9.02888 335.2 9.15021 335.2H15.5482ZM20.3969 337.818C21.1342 337.818 21.7222 338.037 22.1609 338.476C22.6089 338.915 22.8329 339.503 22.8329 340.24V344.818C22.8329 344.939 22.7722 345 22.6509 345H22.0209C21.8996 345 21.8389 344.939 21.8389 344.818V340.436C21.8389 339.913 21.6849 339.493 21.3769 339.176C21.0689 338.849 20.6676 338.686 20.1729 338.686C19.6969 338.686 19.3002 338.821 18.9829 339.092C18.6749 339.363 18.4976 339.717 18.4509 340.156V344.818C18.4509 344.939 18.3902 345 18.2689 345H17.6389C17.5176 345 17.4569 344.939 17.4569 344.818V335.382C17.4569 335.261 17.5176 335.2 17.6389 335.2H18.2689C18.3902 335.2 18.4509 335.261 18.4509 335.382V338.616C18.4509 338.644 18.4602 338.667 18.4789 338.686C18.4976 338.695 18.5116 338.686 18.5209 338.658C18.9316 338.098 19.5569 337.818 20.3969 337.818ZM27.4538 337.804C28.2938 337.804 28.9425 338.019 29.3998 338.448C29.8665 338.877 30.0998 339.447 30.0998 340.156V344.818C30.0998 344.939 30.0391 345 29.9178 345H29.2878C29.1665 345 29.1058 344.939 29.1058 344.818V344.314C29.1058 344.286 29.0965 344.267 29.0778 344.258C29.0591 344.249 29.0405 344.258 29.0218 344.286C28.7698 344.557 28.4525 344.762 28.0698 344.902C27.6965 345.042 27.2858 345.112 26.8378 345.112C26.1845 345.112 25.6338 344.944 25.1858 344.608C24.7471 344.272 24.5278 343.759 24.5278 343.068C24.5278 342.368 24.7798 341.817 25.2838 341.416C25.7971 341.005 26.5065 340.8 27.4118 340.8H29.0358C29.0825 340.8 29.1058 340.777 29.1058 340.73V340.212C29.1058 339.736 28.9705 339.363 28.6998 339.092C28.4385 338.812 28.0278 338.672 27.4678 338.672C27.0291 338.672 26.6698 338.756 26.3898 338.924C26.1098 339.092 25.9325 339.325 25.8578 339.624C25.8298 339.736 25.7598 339.783 25.6478 339.764L24.9618 339.68C24.8405 339.661 24.7845 339.61 24.7938 339.526C24.8871 339.013 25.1718 338.597 25.6478 338.28C26.1331 337.963 26.7351 337.804 27.4538 337.804ZM27.0618 344.258C27.6125 344.258 28.0885 344.123 28.4898 343.852C28.9005 343.572 29.1058 343.199 29.1058 342.732V341.654C29.1058 341.607 29.0825 341.584 29.0358 341.584H27.5658C26.9498 341.584 26.4551 341.71 26.0818 341.962C25.7085 342.214 25.5218 342.564 25.5218 343.012C25.5218 343.423 25.6665 343.735 25.9558 343.95C26.2451 344.155 26.6138 344.258 27.0618 344.258ZM35.0942 337.818C35.8315 337.818 36.4195 338.037 36.8582 338.476C37.3062 338.915 37.5302 339.503 37.5302 340.24V344.818C37.5302 344.939 37.4695 345 37.3482 345H36.7182C36.5968 345 36.5362 344.939 36.5362 344.818V340.436C36.5362 339.913 36.3822 339.493 36.0742 339.176C35.7662 338.849 35.3648 338.686 34.8702 338.686C34.3942 338.686 33.9975 338.821 33.6802 339.092C33.3722 339.363 33.1948 339.717 33.1482 340.156V344.818C33.1482 344.939 33.0875 345 32.9662 345H32.3362C32.2148 345 32.1542 344.939 32.1542 344.818V338.098C32.1542 337.977 32.2148 337.916 32.3362 337.916H32.9662C33.0875 337.916 33.1482 337.977 33.1482 338.098V338.616C33.1482 338.644 33.1575 338.667 33.1762 338.686C33.1948 338.695 33.2088 338.686 33.2182 338.658C33.6288 338.098 34.2542 337.818 35.0942 337.818ZM39.8694 345C39.748 345 39.6874 344.939 39.6874 344.818V335.382C39.6874 335.261 39.748 335.2 39.8694 335.2H40.4994C40.6207 335.2 40.6814 335.261 40.6814 335.382V341.038C40.6814 341.066 40.6907 341.089 40.7094 341.108C40.728 341.117 40.7467 341.108 40.7654 341.08L43.6914 338.014C43.7474 337.949 43.822 337.916 43.9154 337.916H44.6574C44.76 337.916 44.8114 337.953 44.8114 338.028C44.8114 338.056 44.7974 338.093 44.7694 338.14L43.0334 340.058C43.0054 340.086 43.0007 340.119 43.0194 340.156L45.1194 344.79C45.138 344.827 45.1474 344.855 45.1474 344.874C45.1474 344.958 45.0914 345 44.9794 345H44.3214C44.228 345 44.158 344.953 44.1114 344.86L42.3334 340.814C42.324 340.795 42.31 340.786 42.2914 340.786C42.2727 340.777 42.254 340.781 42.2354 340.8L40.7094 342.396C40.6907 342.433 40.6814 342.466 40.6814 342.494V344.818C40.6814 344.939 40.6207 345 40.4994 345H39.8694ZM49.1818 347.8C49.1165 347.8 49.0838 347.739 49.0838 347.618V347.128C49.0838 347.007 49.1165 346.946 49.1818 346.946H49.2798C49.6438 346.946 49.9238 346.895 50.1198 346.792C50.3251 346.689 50.4978 346.507 50.6378 346.246C50.7871 345.985 50.9458 345.583 51.1138 345.042C51.1231 345.023 51.1231 344.995 51.1138 344.958L48.7618 338.126C48.7525 338.107 48.7478 338.084 48.7478 338.056C48.7478 338.019 48.7618 337.986 48.7898 337.958C48.8271 337.93 48.8691 337.916 48.9158 337.916H49.5738C49.6858 337.916 49.7558 337.967 49.7838 338.07L51.5898 343.558C51.5991 343.595 51.6131 343.614 51.6318 343.614C51.6505 343.614 51.6645 343.595 51.6738 343.558L53.4378 338.07C53.4658 337.967 53.5311 337.916 53.6338 337.916H54.3058C54.3711 337.916 54.4178 337.935 54.4458 337.972C54.4738 338.009 54.4785 338.061 54.4598 338.126L51.8838 345.616C51.6598 346.241 51.4498 346.703 51.2538 347.002C51.0578 347.301 50.8105 347.506 50.5118 347.618C50.2225 347.739 49.8118 347.8 49.2798 347.8H49.1818ZM58.4405 345.112C57.7592 345.112 57.1758 344.939 56.6905 344.594C56.2145 344.249 55.8832 343.773 55.6965 343.166C55.5658 342.737 55.5005 342.163 55.5005 341.444C55.5005 340.735 55.5612 340.165 55.6825 339.736C55.8692 339.139 56.2005 338.667 56.6765 338.322C57.1618 337.977 57.7498 337.804 58.4405 337.804C59.1125 337.804 59.6865 337.977 60.1625 338.322C60.6478 338.667 60.9792 339.134 61.1565 339.722C61.2872 340.17 61.3525 340.744 61.3525 341.444C61.3525 342.163 61.2872 342.737 61.1565 343.166C60.9698 343.773 60.6338 344.249 60.1485 344.594C59.6725 344.939 59.1032 345.112 58.4405 345.112ZM58.4405 344.244C58.8885 344.244 59.2712 344.123 59.5885 343.88C59.9058 343.628 60.1205 343.292 60.2325 342.872C60.3072 342.573 60.3445 342.102 60.3445 341.458C60.3445 340.786 60.3072 340.315 60.2325 340.044C60.1298 339.624 59.9152 339.293 59.5885 339.05C59.2712 338.798 58.8792 338.672 58.4125 338.672C57.9645 338.672 57.5818 338.798 57.2645 339.05C56.9472 339.293 56.7325 339.624 56.6205 340.044C56.5458 340.315 56.5085 340.786 56.5085 341.458C56.5085 342.13 56.5458 342.601 56.6205 342.872C56.7232 343.292 56.9332 343.628 57.2505 343.88C57.5772 344.123 57.9738 344.244 58.4405 344.244ZM67.6511 338.098C67.6511 337.977 67.7117 337.916 67.8331 337.916H68.4631C68.5844 337.916 68.6451 337.977 68.6451 338.098V344.818C68.6451 344.939 68.5844 345 68.4631 345H67.8331C67.7117 345 67.6511 344.939 67.6511 344.818V344.286C67.6511 344.258 67.6417 344.239 67.6231 344.23C67.6044 344.221 67.5857 344.23 67.5671 344.258C67.1657 344.818 66.5497 345.098 65.7191 345.098C65.2711 345.098 64.8557 345.009 64.4731 344.832C64.0997 344.645 63.8011 344.379 63.5771 344.034C63.3624 343.689 63.2551 343.273 63.2551 342.788V338.098C63.2551 337.977 63.3157 337.916 63.4371 337.916H64.0671C64.1884 337.916 64.2491 337.977 64.2491 338.098V342.494C64.2491 343.026 64.3984 343.451 64.6971 343.768C64.9957 344.076 65.4017 344.23 65.9151 344.23C66.4471 344.23 66.8671 344.071 67.1751 343.754C67.4924 343.437 67.6511 343.017 67.6511 342.494V338.098ZM76.4757 336.068C75.9623 336.068 75.6123 336.185 75.4257 336.418C75.239 336.642 75.1457 337.029 75.1457 337.58V337.846C75.1457 337.893 75.169 337.916 75.2157 337.916H76.7277C76.849 337.916 76.9097 337.977 76.9097 338.098V338.644C76.9097 338.765 76.849 338.826 76.7277 338.826H75.2157C75.169 338.826 75.1457 338.849 75.1457 338.896V344.818C75.1457 344.939 75.085 345 74.9637 345H74.3477C74.2263 345 74.1657 344.939 74.1657 344.818V338.896C74.1657 338.849 74.1423 338.826 74.0957 338.826H73.2137C73.0923 338.826 73.0317 338.765 73.0317 338.644V338.098C73.0317 337.977 73.0923 337.916 73.2137 337.916H74.0957C74.1423 337.916 74.1657 337.893 74.1657 337.846V337.524C74.1657 336.945 74.231 336.493 74.3617 336.166C74.4923 335.83 74.7163 335.587 75.0337 335.438C75.3603 335.279 75.813 335.2 76.3917 335.2H76.7557C76.877 335.2 76.9377 335.261 76.9377 335.382V335.886C76.9377 336.007 76.877 336.068 76.7557 336.068H76.4757ZM80.7256 345.112C80.0443 345.112 79.461 344.939 78.9756 344.594C78.4996 344.249 78.1683 343.773 77.9816 343.166C77.851 342.737 77.7856 342.163 77.7856 341.444C77.7856 340.735 77.8463 340.165 77.9676 339.736C78.1543 339.139 78.4856 338.667 78.9616 338.322C79.447 337.977 80.035 337.804 80.7256 337.804C81.3976 337.804 81.9716 337.977 82.4476 338.322C82.933 338.667 83.2643 339.134 83.4416 339.722C83.5723 340.17 83.6376 340.744 83.6376 341.444C83.6376 342.163 83.5723 342.737 83.4416 343.166C83.255 343.773 82.919 344.249 82.4336 344.594C81.9576 344.939 81.3883 345.112 80.7256 345.112ZM80.7256 344.244C81.1736 344.244 81.5563 344.123 81.8736 343.88C82.191 343.628 82.4056 343.292 82.5176 342.872C82.5923 342.573 82.6296 342.102 82.6296 341.458C82.6296 340.786 82.5923 340.315 82.5176 340.044C82.415 339.624 82.2003 339.293 81.8736 339.05C81.5563 338.798 81.1643 338.672 80.6976 338.672C80.2496 338.672 79.867 338.798 79.5496 339.05C79.2323 339.293 79.0176 339.624 78.9056 340.044C78.831 340.315 78.7936 340.786 78.7936 341.458C78.7936 342.13 78.831 342.601 78.9056 342.872C79.0083 343.292 79.2183 343.628 79.5356 343.88C79.8623 344.123 80.259 344.244 80.7256 344.244ZM88.5082 337.846C88.8162 337.846 89.0729 337.902 89.2782 338.014C89.3716 338.051 89.4042 338.126 89.3762 338.238L89.2362 338.854C89.2082 338.966 89.1336 339.003 89.0122 338.966C88.8349 338.91 88.6062 338.887 88.3262 338.896C87.8409 338.915 87.4396 339.097 87.1222 339.442C86.8049 339.778 86.6462 340.207 86.6462 340.73V344.818C86.6462 344.939 86.5856 345 86.4642 345H85.8342C85.7129 345 85.6522 344.939 85.6522 344.818V338.098C85.6522 337.977 85.7129 337.916 85.8342 337.916H86.4642C86.5856 337.916 86.6462 337.977 86.6462 338.098V338.882C86.6462 338.919 86.6509 338.943 86.6602 338.952C86.6789 338.952 86.6976 338.938 86.7162 338.91C86.9122 338.574 87.1596 338.313 87.4582 338.126C87.7662 337.939 88.1162 337.846 88.5082 337.846ZM96.2286 345.112C95.5566 345.112 94.9779 344.939 94.4926 344.594C94.0166 344.239 93.6899 343.763 93.5126 343.166C93.3912 342.755 93.3306 342.177 93.3306 341.43C93.3306 340.758 93.3912 340.189 93.5126 339.722C93.6806 339.143 94.0072 338.681 94.4926 338.336C94.9779 337.981 95.5566 337.804 96.2286 337.804C96.9099 337.804 97.4979 337.977 97.9926 338.322C98.4966 338.667 98.8232 339.097 98.9726 339.61C99.0099 339.741 99.0379 339.867 99.0566 339.988V340.016C99.0566 340.119 99.0006 340.179 98.8886 340.198L98.2726 340.268H98.2306C98.1466 340.268 98.0906 340.217 98.0626 340.114C98.0626 340.077 98.0532 340.021 98.0346 339.946C97.9506 339.591 97.7452 339.293 97.4186 339.05C97.0919 338.798 96.6952 338.672 96.2286 338.672C95.7619 338.672 95.3699 338.798 95.0526 339.05C94.7446 339.293 94.5439 339.619 94.4506 340.03C94.3666 340.385 94.3246 340.856 94.3246 341.444C94.3246 342.06 94.3666 342.536 94.4506 342.872C94.5439 343.292 94.7446 343.628 95.0526 343.88C95.3699 344.123 95.7619 344.244 96.2286 344.244C96.6859 344.244 97.0779 344.127 97.4046 343.894C97.7406 343.651 97.9459 343.348 98.0206 342.984C98.0299 342.965 98.0346 342.942 98.0346 342.914L98.0486 342.9C98.0579 342.779 98.1279 342.727 98.2586 342.746L98.8606 342.844C98.9819 342.863 99.0379 342.933 99.0286 343.054L98.9726 343.292C98.8326 343.833 98.5106 344.272 98.0066 344.608C97.5026 344.944 96.9099 345.112 96.2286 345.112ZM103.768 337.818C104.505 337.818 105.093 338.037 105.532 338.476C105.98 338.915 106.204 339.503 106.204 340.24V344.818C106.204 344.939 106.143 345 106.022 345H105.392C105.271 345 105.21 344.939 105.21 344.818V340.436C105.21 339.913 105.056 339.493 104.748 339.176C104.44 338.849 104.039 338.686 103.544 338.686C103.068 338.686 102.671 338.821 102.354 339.092C102.046 339.363 101.869 339.717 101.822 340.156V344.818C101.822 344.939 101.761 345 101.64 345H101.01C100.889 345 100.828 344.939 100.828 344.818V335.382C100.828 335.261 100.889 335.2 101.01 335.2H101.64C101.761 335.2 101.822 335.261 101.822 335.382V338.616C101.822 338.644 101.831 338.667 101.85 338.686C101.869 338.695 101.883 338.686 101.892 338.658C102.303 338.098 102.928 337.818 103.768 337.818ZM111.091 345.112C110.41 345.112 109.826 344.939 109.341 344.594C108.865 344.249 108.534 343.773 108.347 343.166C108.216 342.737 108.151 342.163 108.151 341.444C108.151 340.735 108.212 340.165 108.333 339.736C108.52 339.139 108.851 338.667 109.327 338.322C109.812 337.977 110.4 337.804 111.091 337.804C111.763 337.804 112.337 337.977 112.813 338.322C113.298 338.667 113.63 339.134 113.807 339.722C113.938 340.17 114.003 340.744 114.003 341.444C114.003 342.163 113.938 342.737 113.807 343.166C113.62 343.773 113.284 344.249 112.799 344.594C112.323 344.939 111.754 345.112 111.091 345.112ZM111.091 344.244C111.539 344.244 111.922 344.123 112.239 343.88C112.556 343.628 112.771 343.292 112.883 342.872C112.958 342.573 112.995 342.102 112.995 341.458C112.995 340.786 112.958 340.315 112.883 340.044C112.78 339.624 112.566 339.293 112.239 339.05C111.922 338.798 111.53 338.672 111.063 338.672C110.615 338.672 110.232 338.798 109.915 339.05C109.598 339.293 109.383 339.624 109.271 340.044C109.196 340.315 109.159 340.786 109.159 341.458C109.159 342.13 109.196 342.601 109.271 342.872C109.374 343.292 109.584 343.628 109.901 343.88C110.228 344.123 110.624 344.244 111.091 344.244ZM118.733 345.112C118.052 345.112 117.469 344.939 116.983 344.594C116.507 344.249 116.176 343.773 115.989 343.166C115.859 342.737 115.793 342.163 115.793 341.444C115.793 340.735 115.854 340.165 115.975 339.736C116.162 339.139 116.493 338.667 116.969 338.322C117.455 337.977 118.043 337.804 118.733 337.804C119.405 337.804 119.979 337.977 120.455 338.322C120.941 338.667 121.272 339.134 121.449 339.722C121.58 340.17 121.645 340.744 121.645 341.444C121.645 342.163 121.58 342.737 121.449 343.166C121.263 343.773 120.927 344.249 120.441 344.594C119.965 344.939 119.396 345.112 118.733 345.112ZM118.733 344.244C119.181 344.244 119.564 344.123 119.881 343.88C120.199 343.628 120.413 343.292 120.525 342.872C120.6 342.573 120.637 342.102 120.637 341.458C120.637 340.786 120.6 340.315 120.525 340.044C120.423 339.624 120.208 339.293 119.881 339.05C119.564 338.798 119.172 338.672 118.705 338.672C118.257 338.672 117.875 338.798 117.557 339.05C117.24 339.293 117.025 339.624 116.913 340.044C116.839 340.315 116.801 340.786 116.801 341.458C116.801 342.13 116.839 342.601 116.913 342.872C117.016 343.292 117.226 343.628 117.543 343.88C117.87 344.123 118.267 344.244 118.733 344.244ZM125.984 345.07C125.461 345.07 124.995 344.986 124.584 344.818C124.183 344.65 123.87 344.426 123.646 344.146C123.431 343.866 123.324 343.553 123.324 343.208V343.082C123.324 342.961 123.385 342.9 123.506 342.9H124.108C124.164 342.9 124.206 342.914 124.234 342.942C124.271 342.961 124.29 342.989 124.29 343.026V343.152C124.29 343.46 124.449 343.731 124.766 343.964C125.083 344.188 125.485 344.3 125.97 344.3C126.455 344.3 126.847 344.193 127.146 343.978C127.445 343.754 127.594 343.474 127.594 343.138C127.594 342.905 127.519 342.713 127.37 342.564C127.221 342.415 127.039 342.298 126.824 342.214C126.609 342.13 126.287 342.023 125.858 341.892C125.335 341.743 124.906 341.593 124.57 341.444C124.234 341.295 123.949 341.089 123.716 340.828C123.483 340.557 123.366 340.217 123.366 339.806C123.366 339.209 123.599 338.733 124.066 338.378C124.542 338.023 125.163 337.846 125.928 337.846C126.441 337.846 126.894 337.93 127.286 338.098C127.687 338.266 127.995 338.499 128.21 338.798C128.425 339.087 128.532 339.414 128.532 339.778C128.532 339.899 128.471 339.96 128.35 339.96H127.776C127.655 339.96 127.594 339.927 127.594 339.862V339.778C127.594 339.461 127.44 339.195 127.132 338.98C126.833 338.765 126.427 338.658 125.914 338.658C125.438 338.658 125.055 338.756 124.766 338.952C124.477 339.139 124.332 339.4 124.332 339.736C124.332 340.053 124.467 340.296 124.738 340.464C125.018 340.632 125.452 340.8 126.04 340.968C126.581 341.117 127.02 341.262 127.356 341.402C127.692 341.542 127.981 341.747 128.224 342.018C128.467 342.289 128.588 342.639 128.588 343.068C128.588 343.675 128.35 344.16 127.874 344.524C127.407 344.888 126.777 345.07 125.984 345.07ZM131.016 336.642C130.792 336.642 130.61 336.577 130.47 336.446C130.33 336.306 130.26 336.129 130.26 335.914C130.26 335.699 130.33 335.527 130.47 335.396C130.61 335.265 130.792 335.2 131.016 335.2C131.24 335.2 131.422 335.265 131.562 335.396C131.702 335.527 131.772 335.699 131.772 335.914C131.772 336.129 131.702 336.306 131.562 336.446C131.422 336.577 131.24 336.642 131.016 336.642ZM130.708 345C130.587 345 130.526 344.939 130.526 344.818V338.098C130.526 337.977 130.587 337.916 130.708 337.916H131.338C131.459 337.916 131.52 337.977 131.52 338.098V344.818C131.52 344.939 131.459 345 131.338 345H130.708ZM136.786 337.818C137.523 337.818 138.111 338.037 138.55 338.476C138.998 338.915 139.222 339.503 139.222 340.24V344.818C139.222 344.939 139.161 345 139.04 345H138.41C138.288 345 138.228 344.939 138.228 344.818V340.436C138.228 339.913 138.074 339.493 137.766 339.176C137.458 338.849 137.056 338.686 136.562 338.686C136.086 338.686 135.689 338.821 135.372 339.092C135.064 339.363 134.886 339.717 134.84 340.156V344.818C134.84 344.939 134.779 345 134.658 345H134.028C133.906 345 133.846 344.939 133.846 344.818V338.098C133.846 337.977 133.906 337.916 134.028 337.916H134.658C134.779 337.916 134.84 337.977 134.84 338.098V338.616C134.84 338.644 134.849 338.667 134.868 338.686C134.886 338.695 134.9 338.686 134.91 338.658C135.32 338.098 135.946 337.818 136.786 337.818ZM145.76 338.098C145.76 337.977 145.821 337.916 145.942 337.916H146.572C146.694 337.916 146.754 337.977 146.754 338.098V344.762C146.754 345.807 146.451 346.573 145.844 347.058C145.238 347.543 144.412 347.786 143.366 347.786C143.17 347.786 143.021 347.781 142.918 347.772C142.797 347.763 142.736 347.697 142.736 347.576L142.764 347.016C142.764 346.885 142.825 346.829 142.946 346.848C143.936 346.895 144.65 346.75 145.088 346.414C145.536 346.078 145.76 345.518 145.76 344.734V344.244C145.76 344.216 145.751 344.197 145.732 344.188C145.714 344.179 145.695 344.188 145.676 344.216C145.247 344.767 144.64 345.042 143.856 345.042C143.25 345.042 142.708 344.879 142.232 344.552C141.766 344.225 141.453 343.763 141.294 343.166C141.182 342.783 141.126 342.214 141.126 341.458C141.126 341.047 141.136 340.702 141.154 340.422C141.182 340.142 141.234 339.89 141.308 339.666C141.476 339.106 141.78 338.658 142.218 338.322C142.657 337.977 143.184 337.804 143.8 337.804C144.612 337.804 145.238 338.07 145.676 338.602C145.695 338.63 145.714 338.639 145.732 338.63C145.751 338.621 145.76 338.602 145.76 338.574V338.098ZM145.69 342.858C145.718 342.718 145.737 342.545 145.746 342.34C145.756 342.135 145.76 341.836 145.76 341.444C145.76 340.968 145.756 340.651 145.746 340.492C145.737 340.324 145.714 340.17 145.676 340.03C145.602 339.638 145.415 339.316 145.116 339.064C144.827 338.803 144.458 338.672 144.01 338.672C143.572 338.672 143.198 338.798 142.89 339.05C142.592 339.302 142.382 339.629 142.26 340.03C142.167 340.329 142.12 340.795 142.12 341.43C142.12 342.111 142.167 342.583 142.26 342.844C142.354 343.236 142.554 343.563 142.862 343.824C143.18 344.076 143.562 344.202 144.01 344.202C144.468 344.202 144.841 344.076 145.13 343.824C145.429 343.572 145.616 343.25 145.69 342.858ZM154.403 345.112C153.722 345.112 153.139 344.939 152.653 344.594C152.177 344.249 151.846 343.773 151.659 343.166C151.529 342.737 151.463 342.163 151.463 341.444C151.463 340.735 151.524 340.165 151.645 339.736C151.832 339.139 152.163 338.667 152.639 338.322C153.125 337.977 153.713 337.804 154.403 337.804C155.075 337.804 155.649 337.977 156.125 338.322C156.611 338.667 156.942 339.134 157.119 339.722C157.25 340.17 157.315 340.744 157.315 341.444C157.315 342.163 157.25 342.737 157.119 343.166C156.933 343.773 156.597 344.249 156.111 344.594C155.635 344.939 155.066 345.112 154.403 345.112ZM154.403 344.244C154.851 344.244 155.234 344.123 155.551 343.88C155.869 343.628 156.083 343.292 156.195 342.872C156.27 342.573 156.307 342.102 156.307 341.458C156.307 340.786 156.27 340.315 156.195 340.044C156.093 339.624 155.878 339.293 155.551 339.05C155.234 338.798 154.842 338.672 154.375 338.672C153.927 338.672 153.545 338.798 153.227 339.05C152.91 339.293 152.695 339.624 152.583 340.044C152.509 340.315 152.471 340.786 152.471 341.458C152.471 342.13 152.509 342.601 152.583 342.872C152.686 343.292 152.896 343.628 153.213 343.88C153.54 344.123 153.937 344.244 154.403 344.244ZM163.614 338.098C163.614 337.977 163.675 337.916 163.796 337.916H164.426C164.547 337.916 164.608 337.977 164.608 338.098V344.818C164.608 344.939 164.547 345 164.426 345H163.796C163.675 345 163.614 344.939 163.614 344.818V344.286C163.614 344.258 163.605 344.239 163.586 344.23C163.567 344.221 163.549 344.23 163.53 344.258C163.129 344.818 162.513 345.098 161.682 345.098C161.234 345.098 160.819 345.009 160.436 344.832C160.063 344.645 159.764 344.379 159.54 344.034C159.325 343.689 159.218 343.273 159.218 342.788V338.098C159.218 337.977 159.279 337.916 159.4 337.916H160.03C160.151 337.916 160.212 337.977 160.212 338.098V342.494C160.212 343.026 160.361 343.451 160.66 343.768C160.959 344.076 161.365 344.23 161.878 344.23C162.41 344.23 162.83 344.071 163.138 343.754C163.455 343.437 163.614 343.017 163.614 342.494V338.098ZM169.692 337.846C170 337.846 170.256 337.902 170.462 338.014C170.555 338.051 170.588 338.126 170.56 338.238L170.42 338.854C170.392 338.966 170.317 339.003 170.196 338.966C170.018 338.91 169.79 338.887 169.51 338.896C169.024 338.915 168.623 339.097 168.306 339.442C167.988 339.778 167.83 340.207 167.83 340.73V344.818C167.83 344.939 167.769 345 167.648 345H167.018C166.896 345 166.836 344.939 166.836 344.818V338.098C166.836 337.977 166.896 337.916 167.018 337.916H167.648C167.769 337.916 167.83 337.977 167.83 338.098V338.882C167.83 338.919 167.834 338.943 167.844 338.952C167.862 338.952 167.881 338.938 167.9 338.91C168.096 338.574 168.343 338.313 168.642 338.126C168.95 337.939 169.3 337.846 169.692 337.846ZM177.188 337.804C178.028 337.804 178.677 338.019 179.134 338.448C179.601 338.877 179.834 339.447 179.834 340.156V344.818C179.834 344.939 179.773 345 179.652 345H179.022C178.901 345 178.84 344.939 178.84 344.818V344.314C178.84 344.286 178.831 344.267 178.812 344.258C178.793 344.249 178.775 344.258 178.756 344.286C178.504 344.557 178.187 344.762 177.804 344.902C177.431 345.042 177.02 345.112 176.572 345.112C175.919 345.112 175.368 344.944 174.92 344.608C174.481 344.272 174.262 343.759 174.262 343.068C174.262 342.368 174.514 341.817 175.018 341.416C175.531 341.005 176.241 340.8 177.146 340.8H178.77C178.817 340.8 178.84 340.777 178.84 340.73V340.212C178.84 339.736 178.705 339.363 178.434 339.092C178.173 338.812 177.762 338.672 177.202 338.672C176.763 338.672 176.404 338.756 176.124 338.924C175.844 339.092 175.667 339.325 175.592 339.624C175.564 339.736 175.494 339.783 175.382 339.764L174.696 339.68C174.575 339.661 174.519 339.61 174.528 339.526C174.621 339.013 174.906 338.597 175.382 338.28C175.867 337.963 176.469 337.804 177.188 337.804ZM176.796 344.258C177.347 344.258 177.823 344.123 178.224 343.852C178.635 343.572 178.84 343.199 178.84 342.732V341.654C178.84 341.607 178.817 341.584 178.77 341.584H177.3C176.684 341.584 176.189 341.71 175.816 341.962C175.443 342.214 175.256 342.564 175.256 343.012C175.256 343.423 175.401 343.735 175.69 343.95C175.979 344.155 176.348 344.258 176.796 344.258ZM187.391 339.68C187.521 340.1 187.587 340.693 187.587 341.458C187.587 342.233 187.531 342.811 187.419 343.194C187.251 343.791 186.943 344.263 186.495 344.608C186.047 344.944 185.491 345.112 184.829 345.112C184.465 345.112 184.129 345.042 183.821 344.902C183.513 344.753 183.256 344.543 183.051 344.272C183.032 344.244 183.013 344.235 182.995 344.244C182.976 344.253 182.967 344.272 182.967 344.3V347.534C182.967 347.655 182.906 347.716 182.785 347.716H182.155C182.033 347.716 181.973 347.655 181.973 347.534V338.098C181.973 337.977 182.033 337.916 182.155 337.916H182.785C182.906 337.916 182.967 337.977 182.967 338.098V338.63C182.967 338.658 182.976 338.677 182.995 338.686C183.013 338.686 183.032 338.677 183.051 338.658C183.256 338.387 183.508 338.177 183.807 338.028C184.115 337.879 184.455 337.804 184.829 337.804C185.482 337.804 186.028 337.972 186.467 338.308C186.915 338.644 187.223 339.101 187.391 339.68ZM186.271 343.222C186.383 343.017 186.462 342.788 186.509 342.536C186.565 342.275 186.593 341.915 186.593 341.458C186.593 341.019 186.574 340.679 186.537 340.436C186.499 340.184 186.434 339.96 186.341 339.764C186.229 339.428 186.028 339.162 185.739 338.966C185.459 338.77 185.123 338.672 184.731 338.672C184.357 338.672 184.045 338.77 183.793 338.966C183.541 339.162 183.354 339.423 183.233 339.75C183.149 339.937 183.088 340.156 183.051 340.408C183.013 340.66 182.995 341.01 182.995 341.458C182.995 341.906 183.013 342.261 183.051 342.522C183.088 342.774 183.153 342.998 183.247 343.194C183.359 343.511 183.541 343.768 183.793 343.964C184.054 344.151 184.362 344.244 184.717 344.244C185.09 344.244 185.412 344.151 185.683 343.964C185.953 343.777 186.149 343.53 186.271 343.222ZM195.06 339.68C195.191 340.1 195.256 340.693 195.256 341.458C195.256 342.233 195.2 342.811 195.088 343.194C194.92 343.791 194.612 344.263 194.164 344.608C193.716 344.944 193.161 345.112 192.498 345.112C192.134 345.112 191.798 345.042 191.49 344.902C191.182 344.753 190.926 344.543 190.72 344.272C190.702 344.244 190.683 344.235 190.664 344.244C190.646 344.253 190.636 344.272 190.636 344.3V347.534C190.636 347.655 190.576 347.716 190.454 347.716H189.824C189.703 347.716 189.642 347.655 189.642 347.534V338.098C189.642 337.977 189.703 337.916 189.824 337.916H190.454C190.576 337.916 190.636 337.977 190.636 338.098V338.63C190.636 338.658 190.646 338.677 190.664 338.686C190.683 338.686 190.702 338.677 190.72 338.658C190.926 338.387 191.178 338.177 191.476 338.028C191.784 337.879 192.125 337.804 192.498 337.804C193.152 337.804 193.698 337.972 194.136 338.308C194.584 338.644 194.892 339.101 195.06 339.68ZM193.94 343.222C194.052 343.017 194.132 342.788 194.178 342.536C194.234 342.275 194.262 341.915 194.262 341.458C194.262 341.019 194.244 340.679 194.206 340.436C194.169 340.184 194.104 339.96 194.01 339.764C193.898 339.428 193.698 339.162 193.408 338.966C193.128 338.77 192.792 338.672 192.4 338.672C192.027 338.672 191.714 338.77 191.462 338.966C191.21 339.162 191.024 339.423 190.902 339.75C190.818 339.937 190.758 340.156 190.72 340.408C190.683 340.66 190.664 341.01 190.664 341.458C190.664 341.906 190.683 342.261 190.72 342.522C190.758 342.774 190.823 342.998 190.916 343.194C191.028 343.511 191.21 343.768 191.462 343.964C191.724 344.151 192.032 344.244 192.386 344.244C192.76 344.244 193.082 344.151 193.352 343.964C193.623 343.777 193.819 343.53 193.94 343.222ZM198.124 341.808C198.003 341.808 197.942 341.747 197.942 341.626L197.872 335.382C197.872 335.261 197.933 335.2 198.054 335.2H198.684C198.806 335.2 198.866 335.261 198.866 335.382L198.782 341.626C198.782 341.747 198.722 341.808 198.6 341.808H198.124ZM198.334 344.944C198.082 344.944 197.872 344.865 197.704 344.706C197.546 344.547 197.466 344.351 197.466 344.118C197.466 343.894 197.555 343.703 197.732 343.544C197.91 343.376 198.11 343.292 198.334 343.292C198.558 343.292 198.759 343.376 198.936 343.544C199.114 343.703 199.202 343.894 199.202 344.118C199.202 344.351 199.118 344.547 198.95 344.706C198.782 344.865 198.577 344.944 198.334 344.944Z" fill="black"/>
<g clip-path="url(#clip0_4031_5)">
<path d="M89.3682 69.0837L87.5151 69.0024C87.6255 66.4746 88.7354 44.1884 93.6135 40.123C93.9233 39.8462 94.2886 39.6387 94.6849 39.5146C95.0813 39.3905 95.4996 39.3525 95.9118 39.4032C98.816 39.8077 101.987 44.4157 105.607 53.4908C108.184 59.9521 110.042 66.3946 110.06 66.459L108.278 66.9714C108.26 66.9078 106.424 60.5432 103.88 54.1671C99.3876 42.9093 96.6324 41.3776 95.6564 41.2419C95.4997 41.2249 95.3413 41.2437 95.193 41.297C95.0447 41.3503 94.9105 41.4366 94.8004 41.5494C91.201 44.5489 89.6588 62.442 89.3682 69.0837Z" fill="black"/>
<path d="M72.9962 57.0587L71.1411 103.609L132.349 97.0114L124.783 52.0683L72.9962 57.0587Z" fill="#FFBA49"/>
<path d="M124.783 52.0683L120.28 52.5021L126.272 91.9126L71.3555 98.2357L71.1411 103.609L132.349 97.0114L124.783 52.0683Z" fill="#FFA113"/>
<path d="M157.849 132.113L155.304 131.83C155.326 131.63 157.44 111.717 150.585 104.27C149.779 103.364 148.779 102.653 147.659 102.189C146.54 101.725 145.33 101.52 144.12 101.591C129.189 102.015 122.168 127.658 122.099 127.917L119.625 127.255C121.004 122.466 122.919 117.849 125.335 113.491C130.537 104.23 137.008 99.2289 144.047 99.0287C145.624 98.9479 147.198 99.2208 148.655 99.8275C150.113 100.434 151.416 101.359 152.47 102.535C160.113 110.841 157.945 131.248 157.849 132.113Z" fill="#FFBA49"/>
<path d="M112.428 113.85L166.458 120.263L165.62 205.997L93.4966 197.401L112.428 113.85Z" fill="#DB3022"/>
<path d="M166.458 120.263L161.107 119.627L158.501 198.955L94.5124 192.918L93.4966 197.401L165.62 205.997L166.458 120.263Z" fill="#D10505"/>
<path d="M179.999 147.509C182.46 148.025 184.804 146.057 185.235 143.109C185.694 143.893 186.153 144.678 186.612 145.464C186.182 148.411 183.836 150.38 181.378 149.864C180.919 149.078 180.459 148.293 179.999 147.509Z" fill="#FFBA49"/>
<path d="M107.332 210.563C109.793 211.079 112.137 209.11 112.568 206.163C113.027 206.947 113.486 207.731 113.945 208.517C113.515 211.464 111.169 213.434 108.711 212.918C108.252 212.132 107.792 211.347 107.332 210.563Z" fill="#9B9B9B"/>
<path d="M185.494 98.1689C186.526 100.893 189.205 102.103 191.481 100.867C191.199 101.765 190.917 102.662 190.634 103.559C188.358 104.793 185.679 103.584 184.648 100.859C184.932 99.9634 185.214 99.0666 185.494 98.1689Z" fill="#FF5C00"/>
<path d="M169.571 78.8197C169.987 75.8687 168.327 73.0745 165.864 72.5774C166.515 72.0213 167.167 71.4653 167.82 70.9095C170.282 71.4067 171.942 74.202 171.528 77.1519C170.876 77.7081 170.224 78.264 169.571 78.8197Z" fill="#021193"/>
<path d="M21.7077 66.9101C22.123 63.9591 20.4636 61.1648 18 60.6677C18.6515 60.1116 19.3035 59.5557 19.9563 59C22.418 59.497 24.0783 62.2923 23.664 65.2423C23.0125 65.7984 22.3604 66.3543 21.7077 66.9101Z" fill="#FF5C00"/>
<path d="M72.0943 171.475C72.5097 168.523 70.8503 165.729 68.3867 165.232C69.0382 164.676 69.6902 164.12 70.3429 163.564C72.8046 164.061 74.4649 166.857 74.0506 169.807C73.3992 170.363 72.7471 170.919 72.0943 171.475Z" fill="#FF5C00"/>
<path d="M201.332 60.8892C203.777 61.5061 206.174 59.6327 206.689 56.7032C207.126 57.5058 207.563 58.3091 208 59.1129C207.486 62.0395 205.087 63.914 202.644 63.2989C202.206 62.4963 201.769 61.693 201.332 60.8892Z" fill="#FFBA49"/>
<path d="M5.82079 97.1413C4.94465 94.3384 2.33935 92.9172 0 93.968C0.330918 93.0967 0.662322 92.2241 0.994215 91.3504C3.33162 90.3007 5.93838 91.7209 6.815 94.5225C6.4841 95.395 6.15269 96.2679 5.82079 97.1413Z" fill="#FFBA49"/>
<path d="M66.5339 131.28C66.7066 134.264 68.8667 136.516 71.3577 136.308C70.8324 137.033 70.3061 137.754 69.7818 138.479C67.2898 138.685 65.1306 136.432 64.958 133.447C65.4833 132.726 66.0086 132.003 66.5339 131.28Z" fill="#DB3022"/>
<path d="M48.9287 77.0531C51.4027 76.6419 53.1295 73.9049 52.7852 70.9409C53.4244 71.5197 54.0625 72.0977 54.6998 72.6751C55.043 75.6403 53.3173 78.3755 50.8432 78.7885C50.206 78.2096 49.5678 77.6312 48.9287 77.0531Z" fill="#021193"/>
<path d="M149.812 40.7056C146.604 40.8118 148.91 46.4645 145.701 46.5731C145.088 45.9567 144.476 45.3404 143.862 44.724C147.071 44.6172 144.765 38.9645 147.973 38.8561C148.586 39.4724 149.199 40.0889 149.812 40.7056Z" fill="#FF5C00"/>
<path d="M155.641 189.278C152.519 188.392 153.531 194.565 150.407 193.68C149.947 192.895 149.488 192.11 149.028 191.325C152.152 192.211 151.139 186.038 154.264 186.924C154.722 187.709 155.182 188.494 155.641 189.278Z" fill="#FFBA49"/>
<path d="M62.7804 197.315C60.5748 200.11 65.5417 202.157 63.3361 204.949C62.5396 205.031 61.7421 205.116 60.9456 205.197C63.1512 202.404 58.1842 200.359 60.3898 197.565C61.1873 197.483 61.9842 197.4 62.7804 197.315Z" fill="#021193"/>
<path d="M134.225 4.35473C131.085 5.15394 134.201 10.2188 131.063 11.0163C130.369 10.5414 129.671 10.0683 128.977 9.59221C132.116 8.79519 128.997 3.73215 132.138 2.93289C132.834 3.40893 133.53 3.88287 134.225 4.35473Z" fill="#DB3022"/>
<path d="M33.444 21.0038C34.9887 24.3758 38.1373 19.3394 39.6796 22.7103C39.5005 23.6435 39.3235 24.5803 39.1434 25.5141C37.6011 22.1422 34.4543 27.1802 32.9097 23.8083C33.0893 22.8721 33.2674 21.9373 33.444 21.0038Z" fill="#9B9B9B"/>
<path d="M6.81494 153.583C7.22927 153.508 7.60411 153.29 7.87404 152.966C8.14398 152.643 8.29185 152.235 8.29185 151.814C8.29185 151.392 8.14398 150.984 7.87404 150.661C7.60411 150.337 7.22927 150.119 6.81494 150.044" fill="black"/>
<path d="M174.448 16.8658C173.098 16.8658 172 15.5501 172 13.9329C172 12.3156 173.098 11 174.448 11C175.798 11 176.896 12.3156 176.896 13.9329C176.896 15.5501 175.798 16.8658 174.448 16.8658ZM174.448 12.1634C174.019 12.2058 173.624 12.415 173.348 12.7459C173.072 13.0769 172.936 13.5031 172.971 13.9329C172.932 14.1493 172.941 14.3716 172.997 14.5842C173.053 14.7968 173.155 14.9945 173.296 15.1633C173.437 15.3321 173.613 15.4678 173.812 15.561C174.011 15.6542 174.228 15.7024 174.448 15.7024C174.668 15.7024 174.885 15.6542 175.084 15.561C175.283 15.4678 175.459 15.3321 175.6 15.1633C175.741 14.9945 175.843 14.7968 175.899 14.5842C175.955 14.3716 175.964 14.1493 175.925 13.9329C175.959 13.5031 175.824 13.0769 175.548 12.7459C175.272 12.415 174.877 12.2058 174.448 12.1634Z" fill="black"/>
<path d="M31.9474 127.983C30.5976 127.983 29.4995 126.668 29.4995 125.05C29.4995 123.433 30.5976 122.117 31.9474 122.117C33.2972 122.117 34.3953 123.433 34.3953 125.05C34.3953 126.668 33.2972 127.983 31.9474 127.983ZM31.9474 123.281C31.5331 123.356 31.1582 123.574 30.8883 123.898C30.6184 124.221 30.4705 124.629 30.4705 125.05C30.4705 125.472 30.6184 125.88 30.8883 126.203C31.1582 126.526 31.5331 126.745 31.9474 126.82C32.3617 126.745 32.7366 126.526 33.0065 126.203C33.2764 125.88 33.4243 125.472 33.4243 125.05C33.4243 124.629 33.2764 124.221 33.0065 123.898C32.7366 123.574 32.3617 123.356 31.9474 123.281Z" fill="black"/>
</g>
<defs>
<clipPath id="clip0_4031_5">
<rect width="208" height="213" fill="white"/>
</clipPath>
</defs>
</svg>
