<svg width="26" height="26" viewBox="0 0 26 26" fill="none" xmlns="http://www.w3.org/2000/svg">
<g filter="url(#filter0_d_4006_2)">
<circle cx="13" cy="13" r="12" fill="#FF820D"/>
<circle cx="13" cy="13" r="11.5" stroke="#B8D448"/>
</g>
<g clip-path="url(#clip0_4006_2)">
<path d="M12.4375 15.4281V13.1875C12.4375 13.1378 12.4178 13.0901 12.3826 13.0549C12.3474 13.0198 12.2997 13 12.25 13C11.1049 13 10.9443 14.9648 10.938 15.0484C10.9352 15.0855 10.9436 15.1226 10.9619 15.155C10.9803 15.1874 11.0079 15.2135 11.0412 15.2302L11.3125 15.3659V15.4282L11.1672 16.8815C11.1594 16.9597 11.168 17.0387 11.1926 17.1133C11.2172 17.188 11.2571 17.2567 11.3098 17.3149C11.3626 17.3732 11.4269 17.4198 11.4988 17.4517C11.5706 17.4835 11.6483 17.5 11.7269 17.5H12.0231C12.1017 17.5 12.1794 17.4835 12.2513 17.4517C12.3231 17.4198 12.3875 17.3732 12.4402 17.3149C12.4929 17.2567 12.5329 17.188 12.5574 17.1133C12.582 17.0387 12.5906 16.9597 12.5828 16.8815L12.4375 15.4281ZM11.3254 14.953C11.3579 14.6901 11.4157 14.431 11.498 14.1792C11.6421 13.7552 11.8314 13.4971 12.0625 13.4092V15.25H11.6875C11.6875 15.2152 11.6778 15.1811 11.6595 15.1514C11.6412 15.1218 11.615 15.0979 11.5839 15.0823L11.3254 14.953ZM12.1621 17.0633C12.1446 17.0828 12.1232 17.0984 12.0992 17.1091C12.0753 17.1197 12.0493 17.1251 12.0231 17.125H11.7269C11.7007 17.125 11.6748 17.1195 11.6508 17.1089C11.6269 17.0983 11.6054 17.0827 11.5878 17.0633C11.5702 17.0439 11.5569 17.021 11.5487 16.9961C11.5406 16.9712 11.5377 16.9448 11.5403 16.9188L11.6697 15.625H12.0803L12.2097 16.9188C12.2125 16.9448 12.2097 16.9712 12.2015 16.9961C12.1933 17.0211 12.1799 17.044 12.1622 17.0633H12.1621Z" fill="white"/>
<path d="M18.4375 7.1875H16.9375C16.8878 7.1875 16.8401 7.20725 16.8049 7.24242C16.7698 7.27758 16.75 7.32527 16.75 7.375V7.5625H12.8355C12.666 7.56262 12.4992 7.60514 12.3504 7.6862L10.5147 8.6875H8.3125C7.99708 8.6875 7.75 9.01694 7.75 9.4375C7.75 9.83003 7.96527 10.143 8.25041 10.1831L7.40507 13.0448C7.40432 13.0473 7.40362 13.0499 7.40296 13.0525C7.3844 13.1268 7.37501 13.2032 7.375 13.2798V18.625C7.375 18.6747 7.39475 18.7224 7.42992 18.7576C7.46508 18.7927 7.51277 18.8125 7.5625 18.8125H16C16.0497 18.8125 16.0974 18.7927 16.1326 18.7576C16.1677 18.7224 16.1875 18.6747 16.1875 18.625V13.2955C16.1875 13.206 16.1747 13.1169 16.1494 13.031L15.3682 10.3748C15.6226 10.373 15.867 10.2756 16.053 10.102C16.2389 9.92834 16.3529 9.69118 16.3722 9.4375H16.75V9.8125C16.75 9.86223 16.7698 9.90992 16.8049 9.94508C16.8401 9.98025 16.8878 10 16.9375 10H18.4375C18.4872 10 18.5349 9.98025 18.5701 9.94508C18.6052 9.90992 18.625 9.86223 18.625 9.8125V7.375C18.625 7.32527 18.6052 7.27758 18.5701 7.24242C18.5349 7.20725 18.4872 7.1875 18.4375 7.1875ZM8.125 9.4375C8.125 9.20859 8.23605 9.0625 8.3125 9.0625H13.6724L12.9224 9.8125H8.3125C8.23605 9.8125 8.125 9.66641 8.125 9.4375ZM13.9655 13.0525C13.9469 13.1269 13.9375 13.2032 13.9375 13.2798V18.4375H7.75V13.2798C7.75002 13.2351 7.75536 13.1905 7.76591 13.147L8.64011 10.1875H12.5831C12.4852 10.3529 12.4481 10.5472 12.478 10.737C12.508 10.9268 12.6032 11.1003 12.7472 11.2275C12.8913 11.3547 13.0752 11.4276 13.2672 11.4339C13.4593 11.4401 13.6475 11.3792 13.7995 11.2615L14.7016 10.5599L13.9676 13.0448C13.9668 13.0474 13.9661 13.0499 13.9655 13.0525ZM15.0625 17.9527L15.5473 18.4375H14.5777L15.0625 17.9527ZM15.7896 13.1369C15.8048 13.1884 15.8125 13.2418 15.8125 13.2955V18.1723L15.25 17.6098V13.5625C15.25 13.5128 15.2302 13.4651 15.1951 13.4299C15.1599 13.3948 15.1122 13.375 15.0625 13.375C15.0128 13.375 14.9651 13.3948 14.9299 13.4299C14.8948 13.4651 14.875 13.5128 14.875 13.5625V17.6099L14.3125 18.1724V13.2798C14.3125 13.2351 14.3179 13.1905 14.3284 13.147L15.062 10.6632L15.7896 13.1369ZM16.75 9.0625H16.2994C16.22 9.06259 16.1439 9.09416 16.0878 9.15029C16.0317 9.20641 16.0001 9.2825 16 9.36187C15.9998 9.53105 15.9325 9.69325 15.8129 9.81288C15.6933 9.93251 15.5311 9.99981 15.3619 10H14.9009C14.8425 10.0001 14.7856 10.0196 14.7394 10.0554L13.5693 10.9656C13.4787 11.0361 13.3648 11.0694 13.2506 11.0587C13.1364 11.0481 13.0305 10.9943 12.9546 10.9083C12.8787 10.8223 12.8385 10.7106 12.842 10.596C12.8456 10.4813 12.8928 10.3724 12.9739 10.2913L14.2576 9.00766C14.2838 8.98144 14.3017 8.94803 14.3089 8.91164C14.3162 8.87526 14.3125 8.83755 14.2983 8.80327C14.2841 8.76899 14.2601 8.7397 14.2292 8.71909C14.1984 8.69848 14.1621 8.68749 14.125 8.6875H11.2978L12.53 8.01541C12.6237 7.96435 12.7288 7.93757 12.8355 7.9375H16.75V9.0625ZM18.25 9.625H17.125V7.5625H18.25V9.625Z" fill="white"/>
<path d="M10.75 13.1875C10.75 13.1378 10.7302 13.0901 10.6951 13.0549C10.6599 13.0198 10.6122 13 10.5625 13C10.5128 13 10.4651 13.0198 10.4299 13.0549C10.3948 13.0901 10.375 13.1378 10.375 13.1875V13.75H10V13.1875C10 13.1378 9.98025 13.0901 9.94508 13.0549C9.90992 13.0198 9.86223 13 9.8125 13C9.76277 13 9.71508 13.0198 9.67992 13.0549C9.64475 13.0901 9.625 13.1378 9.625 13.1875V13.75H9.25V13.1875C9.25 13.1378 9.23025 13.0901 9.19508 13.0549C9.15992 13.0198 9.11223 13 9.0625 13C9.01277 13 8.96508 13.0198 8.92992 13.0549C8.89475 13.0901 8.875 13.1378 8.875 13.1875V13.9375H8.87535C8.87522 13.9666 8.88188 13.9953 8.8948 14.0214L9.24681 14.7254L9.09168 16.8974C9.08618 16.9745 9.0966 17.0518 9.1223 17.1247C9.14801 17.1975 9.18844 17.2643 9.24108 17.3208C9.29372 17.3773 9.35743 17.4224 9.42826 17.4533C9.49909 17.4841 9.5755 17.5 9.65275 17.5H9.97225C10.0495 17.5 10.1259 17.4841 10.1967 17.4533C10.2676 17.4224 10.3313 17.3773 10.3839 17.3208C10.4366 17.2643 10.477 17.1975 10.5027 17.1247C10.5284 17.0518 10.5388 16.9745 10.5333 16.8974L10.3782 14.7254L10.7302 14.0214C10.7431 13.9953 10.7498 13.9666 10.7496 13.9375H10.75V13.1875ZM10.2591 14.125L10.0716 14.5H9.55338L9.36588 14.125H10.2591ZM10.1095 17.0653C10.092 17.0842 10.0708 17.0993 10.0472 17.1096C10.0235 17.1199 9.99802 17.1251 9.97225 17.125H9.65275C9.627 17.125 9.60153 17.1197 9.57792 17.1094C9.55432 17.0992 9.53308 17.0841 9.51553 17.0653C9.49798 17.0464 9.4845 17.0242 9.47593 16.9999C9.46737 16.9756 9.46389 16.9498 9.46572 16.9242L9.61209 14.875H10.0129L10.1592 16.9242C10.1612 16.9498 10.1578 16.9757 10.1492 16.9999C10.1407 17.0242 10.1271 17.0465 10.1095 17.0653Z" fill="white"/>
</g>
<defs>
<filter id="filter0_d_4006_2" x="0" y="0" width="26" height="26" filterUnits="userSpaceOnUse" color-interpolation-filters="sRGB">
<feFlood flood-opacity="0" result="BackgroundImageFix"/>
<feColorMatrix in="SourceAlpha" type="matrix" values="0 0 0 0 0 0 0 0 0 0 0 0 0 0 0 0 0 0 127 0" result="hardAlpha"/>
<feOffset/>
<feGaussianBlur stdDeviation="0.5"/>
<feColorMatrix type="matrix" values="0 0 0 0 0 0 0 0 0 0 0 0 0 0 0 0 0 0 0.25 0"/>
<feBlend mode="normal" in2="BackgroundImageFix" result="effect1_dropShadow_4006_2"/>
<feBlend mode="normal" in="SourceGraphic" in2="effect1_dropShadow_4006_2" result="shape"/>
</filter>
<clipPath id="clip0_4006_2">
<rect width="12" height="12" fill="white" transform="translate(7 7)"/>
</clipPath>
</defs>
</svg>
