<svg width="20" height="20" viewBox="0 0 20 20" fill="none" xmlns="http://www.w3.org/2000/svg">
<path d="M2.46158 9.69681C2.01107 9.4488 1.59859 9.13335 1.23752 8.76072C0.679265 8.2023 0.281827 7.49513 0.0893151 6.71769C-0.179399 5.57075 0.168013 4.36313 0.999603 3.55349C1.49201 2.99897 2.21448 2.7256 2.93741 2.82027C3.83735 2.94485 4.61662 3.63535 5.16141 4.29026L4.14423 5.81363C3.88253 5.3874 3.53137 5.02735 3.11671 4.76008C2.90634 4.63825 2.65584 4.61401 2.4272 4.69336C2.19856 4.77271 2.01313 4.94824 1.91679 5.17652C1.3582 6.26566 2.1547 7.39039 3.03741 7.98124L2.46158 9.69681Z" fill="#C03A2B"/>
<path d="M15.9952 11.0208C15.1677 11.6722 13.9816 12.0637 12.4679 11.9818C11.3679 11.9213 10.7369 11.6651 10.3749 11.2771C9.38186 10.22 10.4094 8.21256 9.35427 6.75325C8.53583 5.6789 7.24522 5.1066 5.92691 5.23344C5.62692 4.47531 5.55796 3.87379 5.76485 3.52142C5.76485 3.51786 5.76485 3.51786 5.76829 3.5143V3.51075C5.79433 3.46972 5.82437 3.43156 5.85794 3.39685C6.73375 2.49279 10.0611 4.46463 13.2954 7.79968C14.2728 8.80151 15.1753 9.87831 15.9952 11.0208Z" fill="#BDC3C7"/>
<path d="M17.44 15.5732C16.078 16.7834 9.29566 22.2967 4.27184 17.1108C2.01336 14.783 1.8513 12.0851 2.46161 9.69681C2.61195 9.11097 2.80442 8.53752 3.03743 7.98124C3.35364 7.23129 3.72361 6.50675 4.14426 5.81363C4.50286 5.21567 4.86145 4.69602 5.16144 4.29026C5.4097 3.95569 5.61658 3.69586 5.76485 3.52145C5.55796 3.87382 5.62692 4.47534 5.9269 5.23347C6.52687 6.7604 8.05436 8.93513 10.1232 11.0707C10.199 11.149 10.2749 11.2237 10.3508 11.3021C13.3782 14.363 16.4366 16.1996 17.44 15.5732Z" fill="#E64C3C"/>
<path d="M15.9952 11.0208C15.1754 9.87831 14.2728 8.80151 13.2954 7.79968C10.0611 4.46463 6.73375 2.49279 5.85794 3.39685C5.82437 3.43156 5.79433 3.46972 5.76829 3.51075V3.5143C5.76485 3.51786 5.76485 3.51786 5.76485 3.52142C5.55796 3.87379 5.62692 4.47531 5.92691 5.23344C6.52687 6.76037 8.05436 8.9351 10.1232 11.0707C10.199 11.149 10.2749 11.2237 10.3508 11.302C13.3782 14.363 16.4366 16.1996 17.44 15.5732L15.9952 11.0208Z" fill="#BDC3C7"/>
<path d="M15.7301 3.27138C16.134 2.85445 15.9158 1.95314 15.2426 1.25825C14.5694 0.563357 13.6963 0.33803 13.2924 0.754963C12.8885 1.1719 13.1067 2.07321 13.7799 2.7681C14.4531 3.46298 15.3262 3.68831 15.7301 3.27138Z" fill="#A56A43"/>
<path d="M8.65772 15.6087C7.69571 16.6053 6.37166 16.8865 5.52344 16.3348C6.13029 15.6764 5.66826 15.1781 6.30615 14.5232C6.95438 13.8505 7.44056 14.3523 8.09224 13.6832C8.72668 13.0247 8.26464 12.53 8.87495 11.8715C8.97212 11.9361 9.06228 12.0113 9.14389 12.0957C9.94729 12.9286 9.73351 14.5018 8.65772 15.6087Z" fill="#F29C1F"/>
<path d="M8.87496 11.8715C8.26465 12.53 8.72669 13.0247 8.09225 13.6832C7.44057 14.3523 6.95439 13.8505 6.30615 14.5232C5.66826 15.1781 6.1303 15.6764 5.52345 16.3349C5.42628 16.2703 5.33611 16.1951 5.2545 16.1106C4.44765 15.2778 4.66488 13.7046 5.74067 12.5976C6.70268 11.601 8.02674 11.3198 8.87496 11.8715Z" fill="#E57E25"/>
<path d="M10.375 11.2771L10.3509 11.3021C10.275 11.2238 10.1991 11.149 10.1233 11.0707C8.05445 8.93513 6.52696 6.76041 5.927 5.23347C7.24532 5.10664 8.53593 5.67894 9.35437 6.75329C10.4095 8.2126 9.38195 10.22 10.375 11.2771Z" fill="#A56A43"/>
<path d="M15.9952 11.0208C15.1753 9.87831 14.2728 8.80151 13.2954 7.79968C10.0611 4.46463 6.73375 2.49279 5.85794 3.39685C5.82437 3.43156 5.79433 3.46972 5.76829 3.51075V3.5143C5.76485 3.51786 5.76485 3.51786 5.76485 3.52142C5.55796 3.87379 5.62692 4.47531 5.92691 5.23344C6.52687 6.76037 8.05436 8.9351 10.1232 11.0707C10.199 11.149 10.2749 11.2237 10.3508 11.302C13.3782 14.363 16.4366 16.1996 17.44 15.5732C17.7948 15.308 17.2779 14.4022 17.2779 14.4022L15.9952 11.0208ZM10.8335 10.793L10.6094 10.5688C10.3646 10.3161 10.1301 10.0634 9.89562 9.80712C8.4302 8.18053 7.25096 6.51122 6.68203 5.24768C6.64065 5.15158 6.59928 5.05903 6.5648 4.96649C6.41013 4.64754 6.3332 4.29445 6.34067 3.93786L6.38895 3.89515C6.41859 3.89028 6.44857 3.8879 6.4786 3.88803C7.47164 3.88803 10.0266 5.43632 12.8092 8.3051C13.7346 9.25532 14.592 10.2736 15.3746 11.3519L15.3953 11.4124L16.5055 14.9111C15.5539 14.6442 13.9092 13.6298 12.0438 11.9463C11.6472 11.5939 11.2438 11.2059 10.8335 10.793Z" fill="#ECF0F1"/>
<path d="M19.988 9.67902C19.9402 11.1697 19.5414 12.6259 18.826 13.9217C18.4652 14.5438 17.8255 14.9369 17.1237 14.9678H17.1117C16.8876 14.9813 16.6629 14.9562 16.4469 14.8934C16.0272 14.7532 15.6227 14.5683 15.2401 14.3417C14.9883 14.1957 14.7194 14.0285 14.4332 13.8363C13.5945 13.2652 12.7961 12.6336 12.0437 11.9463C12.1782 11.9605 12.3195 11.9748 12.4678 11.9819C13.9815 12.0637 15.1676 11.6722 15.9952 11.0209C17.4041 9.97043 17.7839 7.97294 16.8641 6.45074C15.4263 3.9628 20.2708 3.92721 19.988 9.67902Z" fill="#A56A43"/>
<path d="M17.5055 12.7613C16.9106 13.499 16.125 14.0471 15.2401 14.3417C14.9884 14.1957 14.7194 14.0284 14.4332 13.8362C15.4245 13.6398 16.321 13.0999 16.9745 12.3057C17.0963 12.1544 17.314 12.1337 17.4606 12.2595C17.6073 12.3853 17.6273 12.61 17.5055 12.7613Z" fill="#805333"/>
</svg>
