<svg width="14" height="14" viewBox="0 0 14 14" fill="none" xmlns="http://www.w3.org/2000/svg">
<g clip-path="url(#clip0_1_3722)">
<path d="M6.90036 6.74387C7.82684 6.74387 8.6291 6.41157 9.28461 5.75597C9.94011 5.10046 10.2724 4.29842 10.2724 3.37183C10.2724 2.44556 9.94011 1.6434 9.2845 0.987686C8.62889 0.332291 7.82674 0 6.90036 0C5.97377 0 5.17172 0.332291 4.51622 0.987793C3.86072 1.6433 3.52832 2.44545 3.52832 3.37183C3.52832 4.29842 3.86072 5.10057 4.51633 5.75607C5.17194 6.41147 5.97409 6.74387 6.90036 6.74387Z" fill="#BDBDBD"/>
<path d="M12.8004 10.7652C12.7815 10.4924 12.7433 10.1948 12.687 9.8806C12.6301 9.56401 12.557 9.26472 12.4694 8.99118C12.3789 8.70845 12.2559 8.42924 12.1038 8.16168C11.9459 7.88397 11.7605 7.64215 11.5524 7.44316C11.3348 7.23499 11.0685 7.06761 10.7604 6.94553C10.4534 6.82408 10.1132 6.76256 9.74933 6.76256C9.60641 6.76256 9.4682 6.8212 9.20128 6.99498C9.037 7.10211 8.84485 7.22601 8.63037 7.36305C8.44698 7.4799 8.19853 7.58939 7.89166 7.68851C7.59227 7.78539 7.28828 7.83452 6.98825 7.83452C6.68822 7.83452 6.38434 7.78539 6.08463 7.68851C5.77808 7.58949 5.52963 7.48001 5.34645 7.36316C5.134 7.2274 4.94174 7.1035 4.77501 6.99487C4.50841 6.82109 4.37009 6.76245 4.22717 6.76245C3.86316 6.76245 3.52307 6.82408 3.2162 6.94563C2.90837 7.0675 2.64188 7.23488 2.42409 7.44327C2.21613 7.64236 2.03059 7.88408 1.87294 8.16168C1.72095 8.42924 1.5979 8.70834 1.50732 8.99129C1.41985 9.26483 1.34668 9.56401 1.28986 9.8806C1.23357 10.1944 1.19533 10.4921 1.17642 10.7655C1.15784 11.0334 1.14844 11.3114 1.14844 11.5923C1.14844 12.3231 1.38075 12.9147 1.83887 13.351C2.29132 13.7816 2.89 14 3.61803 14H10.3591C11.0871 14 11.6856 13.7817 12.1382 13.351C12.5964 12.915 12.8287 12.3233 12.8287 11.5921C12.8286 11.3101 12.8191 11.0318 12.8004 10.7652Z" fill="#BDBDBD"/>
</g>
<defs>
<clipPath id="clip0_1_3722">
<rect width="14" height="14.0001" fill="white"/>
</clipPath>
</defs>
</svg>
